/* XPM */
static char *result[] = {
/* columns rows colors chars-per-pixel */
"32 32 228 2 ",
"   c #BC3B00",
".  c #EA0E00",
"X  c red",
"o  c #FF0600",
"O  c #F00C00",
"+  c #F00F00",
"@  c #FF0B00",
"#  c #FF0C00",
"$  c #FF0E00",
"%  c #FF0F00",
"&  c #FF070C",
"*  c #EF1400",
"=  c #F01100",
"-  c #F01400",
";  c #FF1000",
":  c #FB1803",
">  c #FB1B06",
",  c #FB1C08",
"<  c #FB1F0A",
"1  c #FB1F0B",
"2  c #FF1212",
"3  c #FF2A00",
"4  c #FF2B00",
"5  c #FF2C00",
"6  c #FF2D00",
"7  c #FF2E00",
"8  c #FF2F00",
"9  c #FF3000",
"0  c #FF3100",
"q  c #FF3200",
"w  c #FF3D00",
"e  c #FF2510",
"r  c #FF282A",
"t  c #FF2A2D",
"y  c #FF3232",
"u  c #FF3538",
"i  c #FF383B",
"p  c #FF3A3A",
"a  c #FF393D",
"s  c #FF3A3D",
"d  c #FF383E",
"f  c #FF3C3C",
"g  c #FF3C3D",
"h  c #FF3D3E",
"j  c #FF3C3F",
"k  c #A54C00",
"l  c #A54D00",
"z  c #A64E00",
"x  c #B04900",
"c  c #A55200",
"v  c #A65200",
"b  c #AC5300",
"n  c #AC5400",
"m  c #AC5600",
"M  c #AC5700",
"N  c #AC5800",
"B  c #B65E05",
"V  c #B65E06",
"C  c #B65F07",
"Z  c #B75F07",
"A  c #B85F07",
"S  c #B76008",
"D  c #B7620A",
"F  c #B6630A",
"G  c #B7630A",
"H  c #B7630B",
"J  c #B6640B",
"K  c #B6640C",
"L  c #B7650D",
"P  c #B8630B",
"I  c #BB640C",
"U  c #BC640D",
"Y  c #BD650D",
"T  c #BD660E",
"R  c #BD6910",
"E  c #BC7C3B",
"W  c #BD7C3C",
"Q  c #BD7D3D",
"!  c #BE7D3D",
"~  c #BE7E3D",
"^  c #BD7E3E",
"/  c #BD7F3F",
"(  c #BE7E3E",
")  c #BE7E3F",
"_  c #BE7F3F",
"`  c #CE4A09",
"'  c #CE4B0A",
"]  c #CE4B0B",
"[  c #CE4C0B",
"{  c #CF4D0D",
"}  c #CE5C1B",
"|  c #D16000",
" . c #F0442F",
".. c #FB4F3B",
"X. c #CE7E3D",
"o. c #F26D2D",
"O. c #F06F2E",
"+. c #F26E2E",
"@. c #F26F2E",
"#. c #F2702F",
"$. c #F27F3F",
"%. c #FF3B41",
"&. c #FF3D40",
"*. c #FF3F41",
"=. c #BE7F40",
"-. c #BF7F40",
";. c #FF4E4E",
":. c #FF6C70",
">. c #FF6D70",
",. c #FF6F70",
"<. c #FF7071",
"1. c #6EA200",
"2. c #2CD200",
"3. c #0EF000",
"4. c green",
"5. c #BC803F",
"6. c #FF9500",
"7. c #FF9600",
"8. c #FF9700",
"9. c #FF9800",
"0. c #FF9900",
"q. c #FF9B00",
"w. c #F1A700",
"e. c #FFA200",
"r. c #D98028",
"t. c #DA8129",
"y. c #DA8229",
"u. c #DA832B",
"i. c #D9862E",
"p. c #DA862E",
"a. c #DA882F",
"s. c #E9913A",
"d. c #EB933B",
"f. c #EB933C",
"g. c #BD8040",
"h. c #BE8040",
"j. c #BE8141",
"k. c #C08040",
"l. c #CE8D4D",
"z. c #CE8E4E",
"x. c #CE8E4F",
"c. c #CE8F4F",
"v. c #CE904F",
"b. c #CE9050",
"n. c #CE9151",
"m. c #CF9252",
"M. c #D09050",
"N. c #FF8141",
"B. c #EB9941",
"V. c #FFAA52",
"C. c #F2A161",
"Z. c #F0B071",
"A. c #F2B170",
"S. c #F2B271",
"D. c #F1B172",
"F. c #F1B272",
"G. c #F0B473",
"H. c #F2B473",
"J. c #F2B574",
"K. c #F2B575",
"L. c #FF9091",
"P. c #F0AB96",
"I. c #FBB7A2",
"U. c #FFB4B4",
"Y. c #FFC383",
"T. c #FFC686",
"R. c #FFC1C1",
"E. c #FFC0C3",
"W. c #FFC2C2",
"Q. c #FFC0C4",
"!. c #FFC1C4",
"~. c #FFC1C5",
"^. c #FFC2C5",
"/. c #FFC2C6",
"(. c #FFC3C6",
"). c #FFC3C7",
"_. c #FFC4C6",
"`. c #FFC4C7",
"'. c #FFC5C7",
"]. c #E9D5C0",
"[. c #EAD5C0",
"{. c #EAD5C1",
"}. c #EAD6C1",
"|. c #EAD6C2",
" X c #EAD7C3",
".X c #EBD7C3",
"XX c #EBD7C4",
"oX c #EAD8C5",
"OX c #EADAC5",
"+X c #EBD8C6",
"@X c #EBD9C6",
"#X c #EADAC6",
"$X c #EADBC6",
"%X c #EADBC7",
"&X c #EADCC7",
"*X c #F0DBC6",
"=X c #F0DCC8",
"-X c #F0DDC9",
";X c #F1DDCA",
":X c #FFD3D3",
">X c #FFD3D4",
",X c #FFD2D5",
"<X c #FFD3D6",
"1X c #FFD4D6",
"2X c #FFD4D7",
"3X c #FFD5D7",
"4X c #FFD8D9",
"5X c #EFE1CC",
"6X c #F0E0CB",
"7X c #F0E1CD",
"8X c #F0E3CE",
"9X c #FBE6D2",
"0X c #FBE8D4",
"qX c #FBEBD7",
"wX c #FCE8D5",
"eX c #FCE9D5",
"rX c #FBECD8",
"tX c #FBEDD8",
"yX c #FBEEDA",
"uX c #FFEEDB",
"iX c #FFF2DE",
"pX c #FFF1F1",
"aX c #FFF4F6",
"sX c #FFF4F7",
"dX c #FFF4F8",
"fX c #FFF7F9",
"gX c white",
"hX c None",
/* pixels */
"hXhXhXhXhXhXhXhXhXhXhXhXhXhXhXhXhXhXhXhXhXhXhXhX4.4.hXhXhXhXhXhX",
"hXhXhXhXhXhXhXhXhXhXhXhXhXhXhXhXhXhXhXhXhXhXhXhX3.4.hXhXhXhXhXhX",
"hXhXhXhXhXhXhXhXhXhXhXhXhXhXhXhXhXhXX X X X X x 2.4.4.4.hXhXhXhX",
"hXhXhXhXhXhXhXhXhXhXhXhXhXhXhXhXhXhXw 9 % # 6 | 1.2.3.4.hXhXhXhX",
"hXhXhXhXhXhXhXhXhXhXhXhXhXhXhXhXX w e.7.7 6 6.w.| x hXhXhXhXhXhX",
"hXhXhXhXhXhXhXhXhXhXhXhXhXhXhXhXX 0 0.9.4 5 9.9.7 X hXhXhXhXhXhX",
"hXhXhXhXhXhXhXhXhXhXhXhXhXhXhXhXX ; q 0 @ @ 0 q $ X hXhXhXhXhXhX",
"hXhXhXhXhXhXhXhXhXhXhXhXhXhXhXhX2 X X # q q # X X X hXhXhXhXhXhX",
"hXhXhXhXhXhXhXhXhXhXhXhXgXgXgXU.y X X 9 q.q.9 X X X hXhXhXhXhXhX",
"hXhXhXhXhXhXhXhXhXhXhXhXgXgXgXW.f X X 8 9.8.7 & t ;.hXhXhXhXhXhX",
"hXhXhXhXhXhXhXhXgXgXgXgXgXgXgXR.p X X @ 6 3 o r L.:XpXgXhXhXhXhX",
"hXhXhXhXhXhXhXhXgXgXgXgXgXgXgX>X,.g h *.%.d s <.4XgXgXgXhXhXhXhX",
"hXhXhXhXgXgXgXgXgXgXgXgXgXgXgXaX1X_.'.`.)./.(.3XfXgXgXgXhXhXhXhX",
"hXhXhXhX.X.X|.|.|.}.[.{.}.}.[.|.#X&X%X$X&X&X%XOX X}.[.].hXhXhXhX",
"hXhXhXhXk.-.) ( ( ~ W W ~ ~ W Q h.j.g.g.j.j.g./ ( ! W E hXhXhXhX",
"hXhXhXhXz n A Z n n Z Z n n Z Z n n Z Z n n Z Z n b Z Y hXhXhXhX",
"hXhXhXhXk Z y.y.V V y.y.V V y.y.V V y.y.V V y.y.V V r.d.hXhXhXhX",
"hXhXhXhX5.m.K.J.n.b.S.A.l.z.H.J.n.b.S.A.l.z.H.J.n.n.G.T.hXhXhXhX",
"hXhXhXhX%X7XtXtX7X6X0X9X*X=XqXtX7X6X0X9X*X=XqXtX7X5XrXiXhXhXhXhX",
"hXhXhXhX(.(./.~.!.<XsXgXgXdX,XE.Q.<XsXgXgXdX,X!.^.(./.^.hXhXhXhX",
"hXhXhXhXj j &.s i :.2XgXgX2X>.u u :.2XgXgX2X>.i a j &.&.hXhXhXhX",
"hXhXhXhXe < * = > ..P.8XyXI. .O : ..P.8XyXI. .+ , 1 - . hXhXhXhX",
"hXhXhXhXN.O.[ ] +.$.X.v.H.C.} ` o.$.X.v.H.C.} ' @.#.{   hXhXhXhX",
"hXhXhXhXB.i.J K a.p.C B t.u.F K a.p.C B t.u.F K a.a.L c hXhXhXhX",
"hXhXhXhXR G M M H D n b Z S m M H D n b Z S m M H P N v hXhXhXhX",
"hXhXhXhX_ _ =.=._ _ =.=._ _ =.=._ _ =.=._ _ =.=._ _ =.-.hXhXhXhX",
"hXhXhXhX@X@X+X+X@X@X+X+X@X@X+X+X@X@X+X+X@X@X+X+X@X@X+XoXhXhXhXhX",
"hXhXhXhXXX;XeXwX;X;XwXwX;X;XwXwX;X;XwXwX;X;XwXwX;X-XwXuXhXhXhXhX",
"hXhXhXhX^ M.F.D.c.c.D.D.c.c.D.D.c.c.D.D.c.c.D.D.c.x.Z.Y.hXhXhXhX",
"hXhXhXhXl T f.d.U U d.d.U U d.d.U U d.d.U U d.d.U I s.V.hXhXhXhX",
"hXhXhXhXhXhXhXhXhXhXhXhXhXhXhXhXhXhXhXhXhXhXhXhXhXhXhXhXhXhXhXhX",
"hXhXhXhXhXhXhXhXhXhXhXhXhXhXhXhXhXhXhXhXhXhXhXhXhXhXhXhXhXhXhXhX"
};
