/* XPM */
static char *result[] = {
/* columns rows colors chars-per-pixel */
"16 16 7 1 ",
"  c red",
". c #AA5500",
"X c green",
"o c yellow",
"O c #FFAA55",
"+ c white",
"@ c None",
/* pixels */
"@@@@@@@@@@@@X@@@",
"@@@@@@@@@   XX@@",
"@@@@@@@@ o o @@@",
"@@@@@@@@     @@@",
"@@@@@@++  o  @@@",
"@@@@++++    ++@@",
"@@++++++++++++@@",
"@@............@@",
"@@.O.O.O.O.O.O@@",
"@@++++++++++++@@",
"@@   ++  ++   @@",
"@@O.O.O.O.O.O.@@",
"@@............@@",
"@@++++++++++++@@",
"@@.O.O.O.O.O.O@@",
"@@@@@@@@@@@@@@@@"
};
