/* XPM */
static char *result[] = {
/* columns rows colors chars-per-pixel */
"32 32 73 1 ",
"  c red",
". c #FF0101",
"X c #FC0200",
"o c #FF0202",
"O c #FF0404",
"+ c #FF0405",
"@ c #FF0505",
"# c #FF0606",
"$ c #FF0707",
"% c #FF0808",
"& c #FF0909",
"* c #FF0B0B",
"= c #FF0F0F",
"- c #E11C00",
"; c #E11F00",
": c #FF1212",
"> c #FF1313",
", c #FF1515",
"< c #FF1616",
"1 c #FF1719",
"2 c #FF1818",
"3 c #FF1A1A",
"4 c #FF1B1B",
"5 c #FF1C1C",
"6 c #FF1F1E",
"7 c #C93200",
"8 c #C93700",
"9 c #C13900",
"0 c #C13E00",
"q c #FF2828",
"w c #FF292B",
"e c #FF2E2E",
"r c #FF2F2F",
"t c #FF2E32",
"y c #FF3333",
"u c #FF3136",
"i c #FF3434",
"p c #FF3B3B",
"a c #FF3C3C",
"s c #FF4747",
"d c #FF4D50",
"f c #FF5C5C",
"g c #FF5E5E",
"h c #FF6261",
"j c #FF6464",
"k c #FF7373",
"l c #FF7676",
"z c #FF7979",
"x c #FF7B7B",
"c c #FF7F7F",
"v c #788300",
"b c #788700",
"n c #4EAC00",
"m c #43B700",
"M c #4EB100",
"N c #43BC00",
"B c green",
"V c #FF8488",
"C c #FF8F8F",
"Z c #FF9393",
"A c #FF9595",
"S c #FF9898",
"D c #FF9A9E",
"F c #FFA1A1",
"G c #FFADAD",
"H c #FFB3B3",
"J c #FFC2C2",
"K c #FFC7C7",
"L c #FFE0E0",
"P c #FFE6E6",
"I c #FFEAEA",
"U c #FFF0F0",
"Y c None",
/* pixels */
"YYYYYYYYYYYYYYYYYYYYYYYYYYYYYYYY",
"YYYYYYYYYYYYYYYYYYYYYYYYYYYYYYYY",
"YYYYYYYYYYYYYYYBBYYYYYYYYYYYYYYY",
"YYYYYYYYYYYYYYYBBYYYYYYYYYYYYYYY",
"YYYYYYYYYYYYYYYBBYYYYYYYYYYYYYYY",
"YYYYYYYYYYYYYYYBBYYYYYYYYYYYYYYY",
"YYYYYYYYYYYYYYYBBYYYYYYYYYYYYYYY",
"YYYYYYYYYYYYYYYBBYYYYYYYYYYYYYYY",
"YYYYYYYYYYYYYYBBBBYYYYYYYYYYYYYY",
"YYYYYYYYYYYYYBBYYBBYYYYYYYYYYYYY",
"YYYYYYYYYYYYYBBYYBBYYYYYYYYYYYYY",
"YYYYYYYYYYYYYBBYYBBYYYYYYYYYYYYY",
"YYYYYYYYYYYYYBYYYYBYYYYYYYYYYYYY",
"YYYYYYYYYYYBBYYYYYYBBYYYYYYYYYYY",
"YYYYYYYYYYbMNYYYYYYmnvYYYYYYYYYY",
"YYYYYYY  X;80YYYYYY97-X  YYYYYYY",
"YYYYYYyi6+   YYYYYYut1o   YYYYYY",
"YYYYY3lFh=    YYYYwVDd#    YYYYY",
"YYYY 4ZPC,     YY eGLk&     YYYY",
"YYYY 5SUA<     YY rHIz&     YYYY",
"YYYY 2cKx:     YY qAJj%     YYYY",
"YYYY *agp&     YY >sfrO     YYYY",
"YYYY .@%@.     YY o#$O      YYYY",
"YYYY           YY           YYYY",
"YYYY           YY           YYYY",
"YYYYY         YYYY         YYYYY",
"YYYYYY       YYYYYY       YYYYYY",
"YYYYYYY     YYYYYYYY     YYYYYYY",
"YYYYYYYYYYYYYYYYYYYYYYYYYYYYYYYY",
"YYYYYYYYYYYYYYYYYYYYYYYYYYYYYYYY",
"YYYYYYYYYYYYYYYYYYYYYYYYYYYYYYYY",
"YYYYYYYYYYYYYYYYYYYYYYYYYYYYYYYY"
};
