/* XPM */
static char *result[] = {
/* columns rows colors chars-per-pixel */
"20 20 15 1 ",
"  c black",
". c #AA2F2F",
"X c #CD4B4B",
"o c #C85050",
"O c #E06868",
"+ c #008000",
"@ c #00B020",
"# c #68E810",
"$ c #E79229",
"% c #FFD321",
"& c #888888",
"* c gray72",
"= c #88FF90",
"- c #F0F0E8",
"; c None",
/* pixels */
";;;;;;;;;%%;;;;;;;;;",
";;;;;;;;%%%$;;;;;;;;",
";;;;;;;;%$$$;;;;;;;;",
";;;;;;@@####@@;;;;;;",
";;;;;@---##---@;;;;;",
";;;;@--* ## *--@;;;;",
";;;;@-- -##- --@;;;;",
";;;;@-- &##& --@;;;;",
";;;;@--* ## *--@;;;;",
";;;-%#---==---#-%;;;",
";;;%$##======##%$;;;",
";;;+@+##@@@@##+@+;;;",
";;;;+@++---*++@+;;;;",
";;;;o+@##-*##@+o;;;;",
";;;OO.@@####@@.OO;;;",
";;OOo+@*----*@+oOO;;",
";-O-.+*------*+.-O-;",
";;;;++*------*++;;;;",
";;;OXX.------.XXO;;;",
";;-O-*X.****.X*-O-;;"
};
