/* XPM */
static char *result[] = {
/* columns rows colors chars-per-pixel */
"32 32 214 2 ",
"   c #7D7E00",
".  c #B83E00",
"X  c #F80200",
"o  c #FE0000",
"O  c red",
"+  c #FF0100",
"@  c #FC0200",
"#  c #FF0200",
"$  c #FF0300",
"%  c #FF0400",
"&  c #FF0500",
"*  c #FD0600",
"=  c #FF0600",
"-  c #FF0700",
";  c #FF0005",
":  c #FF0404",
">  c #FB0800",
",  c #FF0800",
"<  c #FF0900",
"1  c #FF0A00",
"2  c #FF0B00",
"3  c #FE0B01",
"4  c #FB0D00",
"5  c #FF0C00",
"6  c #FF0D00",
"7  c #FF0E00",
"8  c #FF0F00",
"9  c #FE0C05",
"0  c #FF030B",
"q  c #FF080B",
"w  c #FF0B0B",
"e  c #E11400",
"r  c #E51700",
"t  c #EB1300",
"y  c #EB1E09",
"u  c #FF1000",
"i  c #FF1100",
"p  c #FF1200",
"a  c #FF1300",
"s  c #FF1400",
"d  c #FF1600",
"f  c #FF1700",
"g  c #FB1A00",
"h  c #FF1800",
"j  c #FF1900",
"k  c #FC1B00",
"l  c #FF1A00",
"z  c #FF1B00",
"x  c #FF1C00",
"c  c #FF1D00",
"v  c #FF1E00",
"b  c #FF1F00",
"n  c #D12400",
"m  c #C13D00",
"M  c #D23104",
"N  c #FF2100",
"B  c #FF2200",
"V  c #FF2300",
"C  c #FF2400",
"Z  c #FF2500",
"A  c #FF2700",
"S  c #FF2A00",
"D  c #FF2B00",
"F  c #FF2C00",
"G  c #FF2D00",
"H  c #FF2E00",
"J  c #FF2F00",
"K  c #FF2309",
"L  c #FF3000",
"P  c #FF3200",
"I  c #FF3300",
"U  c #FF3500",
"Y  c #FF3600",
"T  c #FF3700",
"R  c #FF3A00",
"E  c #FF3D00",
"W  c #FF3E00",
"Q  c #FF3F00",
"!  c #FF3410",
"~  c #FF3636",
"^  c #B24000",
"/  c #B24A00",
"(  c #A75100",
")  c #AE5200",
"_  c #A85400",
"`  c #AA5500",
"'  c #946200",
"]  c #9A6500",
"[  c #946A00",
"{  c #A0690B",
"}  c #FF4000",
"|  c #FF4100",
" . c #FF4600",
".. c #FF4800",
"X. c #FF4900",
"o. c #FF4A00",
"O. c #FF4B00",
"+. c #FF4D00",
"@. c #FF4E00",
"#. c #FF5200",
"$. c #FF5300",
"%. c #FF5700",
"&. c #FF5800",
"*. c #FF5A00",
"=. c #FF5C00",
"-. c #FF5E00",
";. c #FF4E13",
":. c #FF6000",
">. c #FF6300",
",. c #FF6500",
"<. c #FF6700",
"1. c #FF6707",
"2. c #FF6900",
"3. c #FF6C00",
"4. c #FF6D00",
"5. c #FF6E00",
"6. c #FF7000",
"7. c #FF7300",
"8. c #FF7700",
"9. c #FF7900",
"0. c #FF7C00",
"q. c #FF642F",
"w. c #FF4D4D",
"e. c #FF4E55",
"r. c #FF5054",
"t. c #FF5858",
"y. c #D76E46",
"u. c #FF615A",
"i. c #FF6C5A",
"p. c #FF6365",
"a. c #FF6469",
"s. c #FF7C64",
"d. c #748B00",
"f. c #52A300",
"g. c #57A500",
"h. c #5EA302",
"j. c #54AB00",
"k. c #53AC00",
"l. c #64BC22",
"z. c #39C200",
"x. c #38C700",
"c. c #35C900",
"v. c #36C900",
"b. c #31CC00",
"n. c #33CC00",
"m. c #31CE00",
"M. c #3ACF0B",
"N. c #2ED100",
"B. c #14E200",
"V. c #1CE300",
"C. c #1AE500",
"Z. c #0BF300",
"A. c #0CF300",
"S. c #09F600",
"D. c #08F700",
"F. c #03FB00",
"G. c #05FA00",
"H. c #03FC00",
"J. c #01FE00",
"K. c green",
"L. c #05FD03",
"P. c #06FF08",
"I. c #64EB50",
"U. c #FF8000",
"Y. c #FF8200",
"T. c #FF8300",
"R. c #FF8400",
"E. c #FF8700",
"W. c #FF8505",
"Q. c #FF8D00",
"!. c #FF8E00",
"~. c #FF8F00",
"^. c #FF9300",
"/. c #FF9600",
"(. c #FF9107",
"). c #FF9800",
"_. c #FF9B00",
"`. c #FF9E00",
"'. c #FF9F00",
"]. c #FFA100",
"[. c #FFA400",
"{. c #FFA700",
"}. c #FFAB00",
"|. c #FFB000",
" X c #FFB100",
".X c #FFB400",
"XX c #FFBA00",
"oX c #FFBB00",
"OX c #FFBF00",
"+X c #FFBA13",
"@X c #FF882F",
"#X c #FFC100",
"$X c #FFC500",
"%X c #FFC901",
"&X c #FFCE10",
"*X c #D2956C",
"=X c #FFA27C",
"-X c #88DE69",
";X c #FFDC64",
":X c #FFE87C",
">X c #FFACAC",
",X c #D6D0A7",
"<X c #FFC3BE",
"1X c #FFD6BE",
"2X c #FFC7CF",
"3X c #FFCACE",
"4X c #FFDBDB",
"5X c #DFFADD",
"6X c #FFE0E1",
"7X c #F3E8E3",
"8X c #FFF4ED",
"9X c #FFFFED",
"0X c white",
"qX c None",
/* pixels */
"qXqXqXqXqXqXqXqXqXqXqXqXqXqXqXqXqXqXqXqXqXqXqXqXqXqXqXqXqXqXqXqX",
"qXqXqXqXqXqXqXqXqXqXqXqXqXqXqXqXqXqXqXqXqXqXqXqXqXqXqXqXqXqXqXqX",
"qXqXqXqXqXqXqXqXqXqXqXqXqXqXqXqXqXqXqXK.qXqXqXqXqXqXqXqXqXqXqXqX",
"qXqXqXqXqXqXqXqXqXqXqXqXqXqXqXqXqXqXA.J.K.qXqXqXqXqXqXqXqXqXqXqX",
"qXqXqXqXqXqXqXqXqXqXqXqXqXqXqXqXqX^ z.G.K.K.qXqXqXqXqXqXqXqXqXqX",
"qXqXqXqXqXqXqXqXqXqXqXqXqXqX: ; ; M h.S.K.K.K.qXqXqXqXqXqXqXqXqX",
"qXqXqXqXqXqXqXqXqXqXqXqXqX~ w.r.e.y.l.L.K.K.K.qXqXqXqXqXqXqXqXqX",
"qXqXqXqXqXqXqXqXqXqXqXqXw t.>X3X2X,XI.P.K.K.K.qXqXK.K.qXqXqXqXqX",
"qXqXqXqXqXqXqXqXqXqXqXO q p.4X0X0X5X-XM.B.F.K.qXqXK.K.K.qXqXqXqX",
"qXqXqXqXqXqXqXqXqXqXO O 0 a.6X0X0X7X*X{ f.Z.K.K.K.K.K.K.qXqXqXqX",
"qXqXqXqXqXqXqXqXqXO $ , K i.<X8X9X1Xu.y ' c.A.H.K.K.K.qXqXqXqXqX",
"qXqXqXqXqXqXqXqXqXO u O.W.@Xs.=X:X;Xq.9 n [ j.C.K.K.qXqXqXqXqXqX",
"qXqXqXqXqXqXqXqXqXO l 0.%X(.! ;.+X&X1.3 o t ] m.K.qXqXqXqXqXqXqX",
"qXqXqXqXqXqXqXqXO O 5 &.~.=.5 z 3.U.W O O O ) x.K.K.qXqXqXqXqXqX",
"qXqXqXqXqXqXqXO O O % h Z j & < c B i + O @ ` v.K.K.K.qXqXqXqXqX",
"qXqXqXqXqXqXqXO u P Q v # j E U 7 = S | B 4 _ n.K.K.K.qXqXqXqXqX",
"qXqXqXqXqXqXqXO S T.{.%.p X.].Q.J z 7.}.,.g ( b.K.K.K.qXqXqXqXqX",
"qXqXqXqXqXqXqXO H ^.oX>.f $..X'.T N Y.OX7.k . g.V.D.J.qXqXqXqXqX",
"qXqXqXqXqXO O O i X.-.H % Z *.@.d 1 Q :.T * e / d.N.H.qXqXqXqXqX",
"qXqXqXqXqXO = 8 i 6 2 8 p 8 5 6 u i 7 2 7 i 2 > m k.G.qXqXqXqXqX",
"qXqXqXqXqX# D ,.>.V < } 6.o.6 z =.2.F = Y 5.#.a r   qXqXqXqXqXqX",
"qXqXqXqXqX% +. X|...x 8.$XE.C R [.XX%.j <.#X).L X qXqXqXqXqXqXqX",
"qXqXqXqXqX$ E Q.!.R f :.`.4.c J R./. .s $._.9.A O qXqXqXqXqXqXqX",
"qXqXqXqXqX+ s G G a - b I V < 8 S L d = z P A 5 O qXqXqXqXqXqXqX",
"qXqXqXqXqXO O O O O O O O O O O O O O O O O O O O qXqXqXqXqXqXqX",
"qXqXqXqXqXqXO O O O O O O O O O O O O O O O O qXqXqXqXqXqXqXqXqX",
"qXqXqXqXqXqXqXO O O O O O O O O O O O O O O O qXqXqXqXqXqXqXqXqX",
"qXqXqXqXqXqXqXqXqXqXqXqXqXqXqXqXqXqXqXqXqXqXqXqXqXqXqXqXqXqXqXqX",
"qXqXqXqXqXqXqXqXqXqXqXqXqXqXqXqXqXqXqXqXqXqXqXqXqXqXqXqXqXqXqXqX",
"qXqXqXqXqXqXqXqXqXqXqXqXqXqXqXqXqXqXqXqXqXqXqXqXqXqXqXqXqXqXqXqX",
"qXqXqXqXqXqXqXqXqXqXqXqXqXqXqXqXqXqXqXqXqXqXqXqXqXqXqXqXqXqXqXqX",
"qXqXqXqXqXqXqXqXqXqXqXqXqXqXqXqXqXqXqXqXqXqXqXqXqXqXqXqXqXqXqXqX"
};
