/* XPM */
static char *result[] = {
/* columns rows colors chars-per-pixel */
"32 32 196 2 ",
"   c #007D00",
".  c #0E7E06",
"X  c #177D0A",
"o  c #207B0E",
"O  c #297611",
"+  c #247810",
"@  c #45731F",
"#  c #6C5621",
"$  c #577928",
"%  c #63762C",
"&  c #6A7430",
"*  c #657631",
"=  c #7E733C",
"-  c #747335",
";  c #6D6E26",
":  c #AA2D2E",
">  c #AD3333",
",  c #B53B3B",
"<  c #B83F3F",
"1  c #B13336",
"2  c #BC3F40",
"3  c #A05B42",
"4  c #BB4241",
"5  c #957852",
"6  c #A36747",
"7  c #BB6653",
"8  c #C44A4B",
"9  c #C84F4F",
"0  c #C34547",
"q  c #CD5353",
"w  c #D75F5F",
"e  c #D35658",
"r  c #CC4E54",
"t  c #C46C5B",
"y  c #D95E60",
"u  c #E35B63",
"i  c #DC6565",
"p  c #D46962",
"a  c #D2776E",
"s  c #E16768",
"d  c #E16969",
"f  c #E8656B",
"g  c #E57D7E",
"h  c #018402",
"j  c #008906",
"k  c #0C890A",
"l  c #118605",
"z  c #00940D",
"x  c #0A9D0E",
"c  c #149406",
"v  c #0E8910",
"b  c #108910",
"n  c #198717",
"m  c #009E16",
"M  c #0F9215",
"N  c #338C05",
"B  c #279F0F",
"V  c #3B8D15",
"C  c #00A412",
"Z  c #00A61A",
"A  c #00A91B",
"S  c #0AA718",
"D  c #11AF16",
"F  c #0AB21C",
"G  c #06B51F",
"H  c #15B216",
"J  c #1BBE1C",
"K  c #26AE03",
"L  c #26B408",
"P  c #2DBD1A",
"I  c #00AF20",
"U  c #10A926",
"Y  c #05B521",
"T  c #29B320",
"R  c #708A14",
"E  c #53BE11",
"W  c #68A10E",
"Q  c #72A411",
"!  c #4BA822",
"~  c #79A424",
"^  c #75B120",
"/  c #1DC21C",
"(  c #2BC714",
")  c #24C51B",
"_  c #2DCA1A",
"`  c #2AC21B",
"'  c #39C71B",
"]  c #3ED416",
"[  c #3FDB14",
"{  c #36C20C",
"}  c #46C509",
"|  c #49D10E",
" . c #40D417",
".. c #4AD815",
"X. c #52DD14",
"o. c #5ADF11",
"O. c #44C618",
"+. c #6BD715",
"@. c #75DD14",
"#. c #7BDC13",
"$. c #7AD118",
"%. c #72CD19",
"&. c #4FE014",
"*. c #5BE312",
"=. c #64E20E",
"-. c #65EB0F",
";. c #6AEB0F",
":. c #65E710",
">. c #6AE611",
",. c #66EA10",
"<. c #69E910",
"1. c #7CE413",
"2. c #75C129",
"3. c #588842",
"4. c #489648",
"5. c #A68A1D",
"6. c #8FB113",
"7. c #95BA1D",
"8. c #A8BE1C",
"9. c #8F8225",
"0. c #9A8E31",
"q. c #95A728",
"w. c #98BC22",
"e. c #B3AF20",
"r. c #B7B320",
"t. c #D8B21F",
"y. c #CF8E27",
"u. c #C99627",
"i. c #DB9B26",
"p. c #D59A27",
"a. c #EC8D2A",
"s. c #F28D2B",
"d. c #E29A27",
"f. c #E39429",
"g. c #E99429",
"h. c #EB9A28",
"j. c #E49727",
"k. c #F39729",
"l. c #F49D29",
"z. c #C6AC21",
"x. c #C3A725",
"c. c #D7A525",
"v. c #C7B223",
"b. c #D5B122",
"n. c #EEA327",
"m. c #EBAA26",
"M. c #F2AC26",
"N. c #F0A527",
"B. c #E9B723",
"V. c #F5B525",
"C. c #FBB625",
"Z. c #FCBB25",
"A. c #F7BC24",
"S. c #85CE18",
"D. c #8ACD19",
"F. c #91CD18",
"G. c #96CA19",
"H. c #88D816",
"J. c #98D118",
"K. c #B0CF1C",
"L. c #89E314",
"P. c #96E215",
"I. c #9BE315",
"U. c #A1E016",
"Y. c #9BC321",
"T. c #CACC1D",
"R. c #D6CF1E",
"E. c #C5D61C",
"W. c #D6D91C",
"Q. c #E8D71E",
"!. c #E4C81D",
"~. c #DFD221",
"^. c #EFCF20",
"/. c #EEC422",
"(. c #FDC423",
"). c #FFCD22",
"_. c #F7C622",
"`. c #EFD320",
"'. c #FED321",
"]. c #F8D620",
"[. c #BA8A71",
"{. c #84A77F",
"}. c #9ABF7B",
"|. c #B1B9B4",
" X c #C89A98",
".X c #E88484",
"XX c #E69898",
"oX c #F39499",
"OX c #CBB0B5",
"+X c #EBBFBB",
"@X c #E6ADA8",
"#X c #E6C9CA",
"$X c #EEE4DD",
"%X c #EFE9E1",
"&X c #F0E9E2",
"*X c None",
/* pixels */
"*X*X*X*X*X*X*X*X*X*X*X*X*X'.'.'.'.V.g.*X*X*X*X*X*X*X*X*X*X*X*X*X",
"*X*X*X*X*X*X*X*X*X*X*X*X*X'.(.V.V.M.g.*X*X*X*X*X*X*X*X*X*X*X*X*X",
"*X*X*X*X*X*X*X*X*X*X*X*X*X`.B.h.h.f.i.*X*X*X*X*X*X*X*X*X*X*X*X*X",
"*X*X*X*X*X*X*X*X*X*Xh m ' H.T.Z.Z.T.S.P m h *X*X*X*X*X*X*X*X*X*X",
"*X*X*X*X*X*X*X*X*Xj z D ] L.W.'.'.~.S.' H z j *X*X*X*X*X*X*X*X*X",
"*X*X*X*X*X*X*X*X  z D ] H.Q.'.'.'.B.c.S.] F z h *X*X*X*X*X*X*X*X",
"*X*X*X*X*X*X*Xj m H ] *.I.'.Z.M.M.h.f.F.*.] H z j *X*X*X*X*X*X*X",
"*X*X*X*X*X*X  j A _ :.<.L.W.B.h.h.n.x.H.-.-._ Z j   *X*X*X*X*X*X",
"*X*X*X*X*X*X  j Z _ :.<.>.L.E.(.(.T.#.>.<.:._ Z j   *X*X*X*X*X*X",
"*X*X*X*X*X*X  j Z _ :.<.1.U.W.'.'.R.G.@.<.:._ Z j   *X*X*X*X*X*X",
"*X*X*X*X*X*X  j Z _ :.-.P.Q.).).'.V.p.F.;.:._ Z j   *X*X*X*X*X*X",
"*X*X*X*X*X*X  j Z _ :.-.P.].Z.n.n.k.d.F.-.:._ Z j   *X*X*X*X*X*X",
"*X*X*X*X*X*XN j H  .:.-.L.E.B.n.n.c.r.H.-.-. .H j N *X*X*X*X*X*X",
"*X*X*X*X*X^.W c | :.<.:.;.1.E.).).E.@.>.>.-.:.| c W ^.*X*X*X*X*X",
"*X*X*X*X}.2.E } :.<.<.:.1.U.Q.'.C.b.8.#.-.>.;.=.} E E }.*X*X*X*X",
"*X*X*XOX{.U ( *.:.<.<.,.I.].'.Z.h.a.i.F.-.-.>.-.*.( x |.OX*X*X*X",
"*X*X$XXX5 b C ) *.<.<.,.P.`.C.h.f.a.d.F.-.;.;.*.) C b 5 XX&X*X*X",
"*X*X@Xg 7 & n C _ X.,.<.+.D.v.M.M.x.~ +.;.:.X.( C n & 7 .X@X*X*X",
"*X*Xq w d p & v Z ' :.<...P Y.).).7.T ..;.:._ C b & p s i s *X*X",
"*X*X, 9 y d t = n L ,.<.#.K.Q.).M.p.q.$.;.>.L n = t d y 9 2 *X*X",
"*X*X> < 8 q u 7 + K :.X.$./.(.V.h.s.j.F.-.-.K O 7 u q 8 < > *X*X",
"*X*X*X> > > 0 3 + K *./ ! p.l.j.f.a.i.D.:.:.K o 3 0 > > > *X*X*X",
"*X*X*X*X*X*X# @ M H ) C V y.a.u.~ ^ G.#.;.>.P M @ # *X*X*X*X*X*X",
"*X*X*X*X*X*Xn j Z I Z c R i.k.u.! ' :.>.:.X.) A j n *X*X*X*X*X*X",
"*X*X*X*X*X|.4.j Z m k 6.!.).N.f.u.7.<.<.X.J G A j 4.|.*X*X*X*X*X",
"*X*X*X*X#X X3.h z B Q t.C.C.l.j.z.J.>...) G Z z h 3. X#X*X*X*X*X",
"*X*X*X&X+Xa % l l Q /.m.i.i.d.z.$.*.X.) A A z h l & a #X&X*X*X*X",
"*X*X*XoX[.R ; 5.5.p.m.8.F.F.J.$._ / / Y Z z h X = 7 d .XXX*X*X*X",
"*X*X*X6 $ v W v.z.z.e.%.[  .| { S C m Z z h + % t f y e q *X*X*X",
"*X*X*XX v Z O.@.@.1.+.) G G x l j h h h h h - p s w 9 , 1 *X*X*X",
"*X*X*X*XO ; - 9.0.q.*X*X*X*X*X*X*X*X*X*X*X*X6 e 8 4 < 1 *X*X*X*X",
"*X*X*X*X*X: : 1 8 q *X*X*X*X*X*X*X*X*X*X*X*Xq 8 1 : : *X*X*X*X*X"
};
