/* XPM */
static char *result[] = {
/* columns rows colors chars-per-pixel */
"20 20 11 1 ",
"  c #AA2F2F",
". c #C85050",
"X c #E06868",
"o c #008000",
"O c #00B020",
"+ c #68E810",
"@ c #E79229",
"# c #FFD321",
"$ c gray72",
"% c #F0F0E8",
"& c None",
/* pixels */
"&&&&&&&&###@&&&&&&&&",
"&&&&&&&&#@@@&&&&&&&&",
"&&&&&&oO+##+Oo&&&&&&",
"&&&&&oO+###@+Oo&&&&&",
"&&&&oO++#@@@++Oo&&&&",
"&&&&oO+++##+++Oo&&&&",
"&&&&oO++###@++Oo&&&&",
"&&&&oO++#@@@++Oo&&&&",
"&&&#o++++##++++o#&&&",
"&&$O++++##@@++++O$&&",
"&%XoO+++#@@@+++OoX%&",
"&.XXoO++O##O++OoXXX&",
"& .XXo++##@@++oXX. &",
"&&  .o+O@@@@++o.  &&",
"&&&&oOOo@@O+++Oo&&&&",
"&&&$oOo##@@++OOo$&&&",
"&&%Xoo#@@@++OOooX%&&",
"&&Xo@@@+++OOOooXXX&&",
"&&oO+++OOoooooXX. &&",
"&&&  .&&&&&&&&.  &&&"
};
