/* XPM */
static char *result[] = {
/* columns rows colors chars-per-pixel */
"32 32 84 1 ",
"  c #044E0C",
". c #034D0B",
"X c #004A08",
"o c #004906",
"O c #004907",
"+ c #014908",
"@ c #024908",
"# c #034B09",
"$ c #044D0B",
"% c #0E5717",
"& c #236B2E",
"* c #2F763B",
"= c #2F753A",
"- c #277435",
"; c #19722C",
": c #127128",
"> c #137128",
", c #137129",
"< c #137229",
"1 c #0F6821",
"2 c #085613",
"3 c #66AA77",
"4 c #8CCCA0",
"5 c #8BCB9F",
"6 c #73C68F",
"7 c #48C073",
"8 c #32BC64",
"9 c #33BC65",
"0 c #34BD66",
"q c #35BE67",
"w c #35BF68",
"e c #28A250",
"r c #106922",
"t c #014A08",
"y c #246C2F",
"u c #68AB79",
"i c #28A14F",
"p c #C0FAD7",
"a c #BFF9D6",
"s c #9EF2C0",
"d c #62E999",
"f c #43E585",
"g c #44E586",
"h c #46E587",
"j c #46E889",
"k c #47E98A",
"l c #36C169",
"z c #14732A",
"x c #004806",
"c c #30773C",
"v c #8ECEA2",
"b c #BFF8D5",
"n c #9DF1BE",
"m c #61E898",
"M c #42E484",
"N c #43E485",
"B c #45E486",
"V c #46E688",
"C c #35C068",
"Z c #147229",
"A c #30763B",
"S c #8DCDA1",
"D c #84EBAD",
"F c #59E591",
"G c #42E283",
"H c #43E283",
"J c #44E284",
"K c #004807",
"L c #287536",
"P c #75C790",
"I c #4BE388",
"U c #43E284",
"Y c #014807",
"T c #1A732D",
"R c #49C174",
"E c #024807",
"W c #33BE66",
"Q c #29A351",
"! c #024A09",
"~ c #085713",
"^ c #034D0A",
"/ c #0E5817",
"( c #69AC7B",
") c white",
/* pixels */
" .XooO+@@@@@@#$  .XooO+@@@@@@#$ ",
".%&*=-;:>>>,<12..%&*=-;:>>>,<12$",
"X&345678900qwertOyu45678900qwi1#",
"o*4pasdfghhjklzxxcvpasdfghhjkw<@",
"o=5abnmMNBBVjCZxxASabnmMNBBVjq,@",
"O-6snDFGHJJBhq<KxLPsnDFGHJJBh0>@",
"+;7dmFIUJJJBhq<YYTRdmFIUJJJBh0>@",
"@:8fMGUJJJJBhq<EE<WfMGUJJJJBh0>@",
"@>9gNHJJJJJBhq<EE<WgNHJJJJJBh0>@",
"@>0hBJJJJJJBhq<EE<qhBJJJJJJBh0>@",
"@>0hBJJJJJJBhq<EE<qhBJJJJJJBh0>@",
"@,qjVBBBBBBVjCZEEZCjVBBBBBBVjq,@",
"@<wkjhhhhhhjklzYYzlkjhhhhhhjkw<@",
"#1elCqqqqqqClQr!!rQlCqqqqqqCle1#",
"$2rzZ<<<<<<Zzr~..~rzZ<<<<<<Zzr2$",
" .txxKYEEEEEY!.  .txxKYEEEEEY!. ",
" .OxxxYEEEEEY!.  ^OxxxYEEEEEY!. ",
".%ycALT<<<<Zzr~.^/ycALT<<<<Zzr2$",
"X&uvSPRWWqqClQrtOy(vSPRWWqqCle1#",
"o*4pasdfghhjklzxxcvpasdfghhjkw<@",
"o=5abnmMNBBVjCZxxASabnmMNBBVjq,@",
"O-6snDFGHJJBhq<KxLPsnDFGHJJBh0>@",
"+;7dmFIUJJJBhq<YYTRdmFIUJJJBh0>@",
"@:8fMGUJJJJBhq<EE<WfMGUJJJJBh0>@",
"@>9gNHJJJJJBhq<EE<WgNHJJJJJBh0>@",
"@>0hBJJJJJJBhq<EE<qhBJJJJJJBh0>@",
"@>0hBJJJJJJBhq<EE<qhBJJJJJJBh0>@",
"@,qjVBBBBBBVjCZEEZCjVBBBBBBVjq,@",
"@<wkjhhhhhhjklzYYzlkjhhhhhhjkw<@",
"#1iwq000000qwer!!rewq000000qwi1#",
"$21<,>>>>>>,<12..21<,>>>>>>,<12$",
" $#@@@@@@@@@@#$  $#@@@@@@@@@@#$ "
};
