/* XPM */
static char *result[] = {
/* columns rows colors chars-per-pixel */
"16 16 3 1 ",
"  c #9C4E04",
". c #EC9E24",
"X c #FCFEFC",
/* pixels */
"X...... X...... ",
".     . .     . ",
". XX. . . XX. . ",
". X.. . . X.. . ",
". ... . . ... . ",
".     . .     . ",
"......X ......X ",
"                ",
"X...... X...... ",
".     . .     . ",
". XX. . . XX. . ",
". X.. . . X.. . ",
". ... . . ... . ",
".     . .     . ",
"......X ......X ",
"                "
};
