/* XPM */
static char *result[] = {
/* columns rows colors chars-per-pixel */
"16 16 2 1 ",
"  c #F46AFC",
". c #FCC2FC",
/* pixels */
"    ....    ....",
"   ....    .... ",
"  ....    ....  ",
" ....    ....   ",
"....    ....    ",
"...    ....    .",
"..    ....    ..",
".    ....    ...",
"    ....    ....",
"   ....    .... ",
"  ....    ....  ",
" ....    ....   ",
"....    ....    ",
"...    ....    .",
"..    ....    ..",
".    ....    ..."
};
