/* XPM */
static char *result[] = {
/* columns rows colors chars-per-pixel */
"16 16 3 1 ",
"  c #044E0C",
". c #44E284",
"X c #B4F2CC",
/* pixels */
"                ",
" XX....  XX.... ",
" XX....  XX.... ",
" ......  ...... ",
" ......  ...... ",
" ......  ...... ",
" ......  ...... ",
"                ",
"                ",
" XX....  XX.... ",
" XX....  XX.... ",
" ......  ...... ",
" ......  ...... ",
" ......  ...... ",
" ......  ...... ",
"                "
};
