/* XPM */
static char *result[] = {
/* columns rows colors chars-per-pixel */
"32 32 90 1 ",
"  c #A64D00",
". c #A75100",
"X c #A95400",
"o c #AE5A00",
"O c #AC5A10",
"+ c #B66200",
"@ c #BA6400",
"# c #BE6900",
"$ c #BA7400",
"% c #BE7C00",
"& c #BD7C11",
"* c #B87133",
"= c #BE7C32",
"- c #BC793E",
"; c #CD7300",
": c #C77D00",
"> c #CF7900",
", c #BD7B44",
"< c #CD8500",
"1 c #C58D00",
"2 c #CD8A00",
"3 c #DA8400",
"4 c #DD8800",
"5 c #C99300",
"6 c #CD9B00",
"7 c #CE9E0F",
"8 c #D09100",
"9 c #C38710",
"0 c #EC9400",
"q c #EF9C00",
"w c #F19A00",
"e c #DCB700",
"r c #DDBB00",
"t c #EAA200",
"y c #EFAE00",
"u c #FEA500",
"i c #F0AD00",
"p c #FFAB00",
"a c #F2B200",
"s c #FFB400",
"d c #FFBC00",
"f c #C3873C",
"g c #E0C100",
"h c #E9C400",
"j c #E7CE00",
"k c #EFCA00",
"l c #FFC200",
"z c #FFCE00",
"x c #EAD500",
"c c #EDDB00",
"v c #FFD100",
"b c #F0DB00",
"n c #FFDB00",
"m c #FFC312",
"M c #EFE000",
"N c #F0E200",
"B c #FAE600",
"V c #FFEB00",
"C c #FFF200",
"Z c #FFFE00",
"A c #FFFF10",
"S c #EFDF2D",
"D c #EAD632",
"F c #EEDD30",
"G c #FFFF2F",
"H c #F0E130",
"J c #FFEF32",
"K c #FFFF31",
"L c #FAF43D",
"P c #FFFF3D",
"I c #FFFF42",
"U c #FFFF5E",
"Y c #FFFF61",
"T c #FFFF69",
"R c #DDBBA3",
"E c #E9D397",
"W c #ECD89B",
"Q c #FBF691",
"! c #FFFF95",
"~ c #FFFF98",
"^ c #EFDFA1",
"/ c #E4C9B8",
"( c #FFFFA2",
") c #F9F3B4",
"_ c #FFFABA",
"` c #EAD4CC",
"' c #FFFFC5",
"] c #FFFFCB",
"[ c white",
"{ c None",
/* pixels */
"{{{{{{{{{{{{{{{{{{{{{{ZZZZ{{{{{{",
"{{{{{{{{{{{{{{{{{{{{{{LKAZ{{{{{{",
"{{{{{{{{{{{{{{{{{{{{ f^!KZZZ{{{{",
"{{{{{{{{{{{{{{{{{{{{ -RWDxxc{{{{",
"{{{{{{{{{{{{{{{{{{{{{{,=&%%6cZ{{",
"{{{{{{{{{{{{{{{{{{{{{{o ...$rj{{",
"{{{{{{{{{{{{{{{{{{ZZZj$ ...o$%+X",
"{{{{{{{{{{{{{{{{{{ZZZN6$oXXX..XX",
"{{{{{{{{{{{{{{ZZZZZZZCNe$.XX{{{{",
"{{{{{{{{{{{{{{ZZZZVVZZZc:.XX{{{{",
"ZP'[['PZZZZZZZZZZCvzVZZc% .XXX{{",
"PU(''!KZZZZZVVVVVnlvCCNr5$oXXX{{",
"'(YPIKAZZZZCzddddlnCZN61rr$.Xo{{",
"[_JVVVVVVVVnspsddzCZMr16NN8+oX{{",
"{{mdddddlddspsnVBCZM61rNZVa3+X{{",
"{{uuuupuupdddvCZZZMr16NZZVl0#X{{",
"{{{{{{upusnVVCZZZN61rMCZZVl0#.{{",
"{{{{{{mdlzCZZZCBcr16MZZZCnd0@.{{",
"ZI'[[_JBVCZZZCvy21rMCZZCvds0#X{{",
"xSQ']!KZCVVBchq3:6MZZZCndu04#.{{",
"%7HIIKACvlly2$#1eNCZZCzssw>@{{{{",
" $rxcjxht0uq<$$6NZZZCnduw3+.{{{{",
"{{$%%$%$#;0skxxMCZZCzdpq>+o.{{{{",
"{{ O*,,=&2yzCZZZCVVnduq3+.XX{{{{",
"{{{{/``EDcBCZZZCzdddsw>@o.{{{{{{",
"{{{{]]]~KZZZCVVnduq003@X.X{{{{{{",
"{{[]TIIKAZZCvdldpq>##@oX{{{{{{{{",
"{{[)Fxxxxxcht00003@...XX{{{{{{{{",
"{{{{9%%%%1%%#####@oXXX{{{{{{{{{{",
"{{{{  .... .XXXXXXXXXX{{{{{{{{{{",
"{{{{{{{{XXXXXXXXXX{{{{{{{{{{{{{{",
"{{{{{{{{oXXXXXoXXX{{{{{{{{{{{{{{"
};
