/* XPM */
static char *result[] = {
/* columns rows colors chars-per-pixel */
"32 32 217 2 ",
"   c #522B0F",
".  c #482612",
"X  c #512F1F",
"o  c #4A321E",
"O  c #553512",
"+  c #5D3413",
"@  c #57321A",
"#  c #5C361A",
"$  c #5D3A1C",
"%  c #64330E",
"&  c #613412",
"*  c #6B3614",
"=  c #663A15",
"-  c #6A3A14",
";  c #66361D",
":  c #6A351B",
">  c #623C1D",
",  c #6D3C1A",
"<  c #703413",
"1  c #733D16",
"2  c #713C1A",
"3  c #503729",
"4  c #633D20",
"5  c #683A22",
"6  c #6B4519",
"7  c #6A441E",
"8  c #714017",
"9  c #56463B",
"0  c #6B4522",
"q  c #684D27",
"w  c #6D452B",
"e  c #6B4C2A",
"r  c #754224",
"t  c #7B4C23",
"y  c #784B26",
"u  c #744329",
"i  c #73492B",
"p  c #6A502E",
"a  c #7B542A",
"s  c #644630",
"d  c #664D35",
"f  c #6C4C34",
"g  c #6B4C3A",
"h  c #794F31",
"j  c #675033",
"k  c #73543D",
"l  c #7A5A38",
"z  c #5B4741",
"x  c #6A5341",
"c  c #755943",
"v  c #735947",
"b  c #796750",
"n  c #6F6A68",
"m  c #776C65",
"M  c #6A6E70",
"N  c #7E7B7E",
"B  c #834E25",
"V  c #855125",
"C  c #85532B",
"Z  c #8B562F",
"A  c #8A5C2C",
"S  c #945E2D",
"D  c #985F2C",
"F  c #825235",
"G  c #8A5531",
"H  c #815A32",
"J  c #8D5B34",
"K  c #835A3A",
"L  c #8C5D3B",
"P  c #945E33",
"I  c #975F34",
"U  c #89612E",
"Y  c #95622D",
"T  c #9A642D",
"R  c #94682E",
"E  c #9B6C2F",
"W  c #8E6335",
"Q  c #876239",
"!  c #8E633B",
"~  c #946334",
"^  c #996531",
"/  c #956935",
"(  c #9C6A34",
")  c #94633B",
"_  c #99653B",
"`  c #966B3C",
"'  c #9B6C3C",
"]  c #9E7037",
"[  c #9D703C",
"{  c #A1672F",
"}  c #A36630",
"|  c #A56D35",
" . c #A06D3C",
".. c #A3713E",
"X. c #AA773D",
"o. c #A5793E",
"O. c #8E5E41",
"+. c #826441",
"@. c #8C6443",
"#. c #8F6944",
"$. c #83664D",
"%. c #8D654B",
"&. c #86694D",
"*. c #8C694E",
"=. c #926545",
"-. c #996542",
";. c #946A44",
":. c #9B6C44",
">. c #93664A",
",. c #936C4B",
"<. c #9A6E4A",
"1. c #88724F",
"2. c #9F7140",
"3. c #987649",
"4. c #9C744C",
"5. c #836652",
"6. c #876850",
"7. c #8B6C51",
"8. c #8C7559",
"9. c #9B7455",
"0. c #94755B",
"q. c #A37444",
"w. c #A67B45",
"e. c #A97A45",
"r. c #A27549",
"t. c #A87749",
"y. c #A5794A",
"u. c #A97D4B",
"i. c #AA7D53",
"p. c #A97B58",
"a. c #8B7662",
"s. c #887764",
"d. c #927B64",
"f. c #997864",
"g. c #877974",
"h. c #9A7F72",
"j. c #A67D63",
"k. c #9E835C",
"l. c #AB844C",
"z. c #A58354",
"x. c #AD8551",
"c. c #AA855D",
"v. c #A8885B",
"b. c #B48557",
"n. c #B38D56",
"m. c #B28758",
"M. c #B58A5B",
"N. c #BB945E",
"B. c #B4985E",
"V. c #988473",
"C. c #93867C",
"Z. c #998579",
"A. c #92897F",
"S. c #9A8A7B",
"D. c #A98661",
"F. c #A98666",
"G. c #AC8A63",
"H. c #B38D64",
"J. c #B88E65",
"K. c #B69262",
"L. c #BB9365",
"P. c #BC966B",
"I. c #BC9A69",
"U. c #BC9874",
"Y. c #BFA277",
"T. c #C49D66",
"R. c #C0936C",
"E. c #C59B6D",
"W. c #C49D72",
"Q. c #CB9E74",
"!. c #CAA56D",
"~. c #C5A272",
"^. c #CBA272",
"/. c #C4A37D",
"(. c #CDA67A",
"). c #D0A374",
"_. c #7B7C87",
"`. c #8D8983",
"'. c #8D8C8D",
"]. c #938682",
"[. c #928982",
"{. c #94898A",
"}. c #9A8E8D",
"|. c #94918F",
" X c #8C8E92",
".X c #9B9696",
"XX c #A7978C",
"oX c #B8A89B",
"OX c #9FA3A3",
"+X c #AAA6A5",
"@X c #B6ACA6",
"#X c #B9AEA5",
"$X c #BAAFA9",
"%X c #B6B0A4",
"&X c #B9B1A6",
"*X c #B9B2AC",
"=X c #BBAEB2",
"-X c #B4B7B6",
";X c #B1B8B6",
":X c #B3B6BB",
">X c #B7B6B9",
",X c #D7AD89",
"<X c #D3B685",
"1X c #D9B482",
"2X c #D5B38A",
"3X c #C6B9B2",
"4X c #D4CBBE",
"5X c #BDB8C1",
"6X c #BFC1CC",
"7X c #C7C4C8",
"8X c #D8CCC6",
"9X c #D7D0CC",
"0X c #DAD2CB",
"qX c #DAD3D3",
"wX c #E9DDD8",
"eX c #E9E4E1",
"rX c #EFEFF5",
/* pixels */
"p O @ @ @ # & & % & & % & & + & & + & & + & + % % & & + + @ @ $ ",
"q 9.p.K = t C B V V V C B V V V V V V V C V V C V V A C - <.z.@.",
"0 i.,X<.% _ q.t.t. .e.t.l...2.w.w.' u.2.u.y.u.q.q.q.b.:.* 3.(.H.",
"0 ` H.,.* i.U.U.L.J.L.L.~.B.I.W.P.P.~.P.J.P.W.K.H.R.).-.; W x.c.",
"0 ` x.;.% 2 r w w u r r 6 r r y r r r r u u r r y 0 8 5 ; ` w.c.",
"0 2.l.;.- ) =.#.,.F 5 =.=.#.,.h 5 =.=.>.>.h w =.,.#.` y ; ` w.c.",
"0 w.^.<.w P.W.1X1Xz.e I.Y.(.<X4.y I.~.2X2X4.a I./.2X1X:.; ` !.c.",
"0 ' E.7.d b 3.!.B.z.t r.x.!.I.r.t q.x.Q.W.r.t r.G.U.I.;.: / N.G.",
"0 ` z.0.>X&Xb v.1.7.w %.,.F.9.%.w @.9.j.9.%.i @.0.k.v.-.* / l.D.",
"0 ` n.a.eXqXg.oX#X=X@X$X%X&X@X$X$X#X#X#X*X@X@X%XoX8.z.;.* W n.D.",
"7 q./.s.3X5XN *X=X>X:X:X-X;X:X:X:X:X;X;X;X5X:X-X*XV.k.;.: / !.G.",
"0 / H.a.[.'.n ].A.[.[.[.[.[.].{.{.{.`.A.`.'.{.A.S.d.3.=.: A n.G.",
"0 [ J.0.C.C.x d j g g g f f g g g g f d j g d f f 0 r.-.* ~ n.G.",
"0 ` ^.K k k h ) Q @.: C ) J L L ; C ! A W L > C ) W w._ * ~ !.G.",
"7 ' Q.,.  0 _  .[ y.8 ~ e.] q.q.2 T X.( w.4.8 ^ y.' X._ : W B.G.",
"0 ` M.<.= ~ | } [ q.8 U ( ( ..2.2 T | E q.<.0 K 4./ o.) * ~ x.c.",
"0 q.Q.3.% S { T ` 4., P ^ ^ 2.:.2 I ( R Q c v v h W o.! = ` T.c.",
"0 2.M.;.- S { T ` 4.2 I ^ } 2.:.2 I T H f XXeX0X8.q 3.! & ' l.D.",
"0 ' m.;.- S T Y :.4.2 P ^ T  .:., T ~ e Z.>XrXeX+Xb +.#.* ^ l.D.",
"0 ~ b.-.- S T T ' r.2 D ^ ^  .-., Y ^ p +X:X6XOX.XC.l #.* Y w.D.",
"0 q.M.-.- S T T ( :.2 I ^ T  ._ , ^ ~ e XX.X_.M .Xa.K O.: ' l.D.",
"0 ' ^.4.& ~ T T ( _ 2 P ^ T  .) , I ( a x }.'.|.C.s =.O.: ~ T.G.",
"7 ` E.<.; ) ^ T ( _ 1 I T T ( ) , ^ T ~ $ 3 z 9 o 0 ` L ; ~ N.H.",
"0 e.(.,.# H / Y ( _ 1 I T T _ W , D D ^ t   . . O A ' G : ) ^.H.",
"0 ` H.,.0.0.H / ~ ) , P ~ ^ _ L : ~ T R ~ y   # a R E J : ~ x.D.",
"0 :.9.d.wX0Xv &.*.5.k &.7.5.7.$.c 5.%.&.6.5.v 5.5.l ~ G < ( t.D.",
"7 :.z.d.qX7XA.4X9X9X9X0X0X0X0X0X0X0X0X0X9X9X9XqX8Xf.) G < _ t.G.",
"7 w.W.8.+X+Xn `. X X'.'.'.'.'.'.'.'.'.'. X X X X{.f.@.F : :.^.F.",
"7 :.H.8.g.g.m V.Z.].].C.C.C.C.C.A.C.C.C.C.].].C.Z.*.! C : / n.G.",
"7 r.z.5.V.h.> = > ; @ $ > > > @ @ > 7 $ 4 ; @ $ 4 6 ~ t * [ l.v.",
"0 ` Q.%.X @ B T ~ Z , P ~ ~ ~ C 2 P ~ ~ _ B 2 L ) ~ R B * / N.G.",
"0 J p.L 5 K I S ~ C , J ~ Y P B 2 A P I D V 1 P P S S B ; G p.9."
};
