/* XPM */
static char *result[] = {
/* columns rows colors chars-per-pixel */
"32 32 197 2 ",
"   c #262625",
".  c #3B3B3A",
"X  c #017C00",
"o  c #1C7307",
"O  c #216C06",
"+  c #3B6E13",
"@  c #277911",
"#  c #33781A",
"$  c #416A17",
"%  c #566B1F",
"&  c #7D4924",
"*  c #4B6D20",
"=  c #444343",
"-  c #545852",
";  c #6F7846",
":  c #63665D",
">  c #615E62",
",  c #6D6D6B",
"<  c #777579",
"1  c #B42F2F",
"2  c #9C4633",
"3  c #965D3C",
"4  c #B2443D",
"5  c #B94848",
"6  c #BB5448",
"7  c #AD574E",
"8  c #C3534E",
"9  c #CA5B55",
"0  c #CF5C59",
"q  c #DB5C5F",
"w  c #CA4B4B",
"e  c #C36665",
"r  c #DF6767",
"t  c #D86B71",
"y  c #E16667",
"u  c #E06868",
"i  c #E27A79",
"p  c #E17171",
"a  c #038D0A",
"s  c #048703",
"d  c #00940C",
"f  c #0F9500",
"g  c #1C9D02",
"h  c #109601",
"j  c #029C12",
"k  c #099B17",
"l  c #3F870E",
"z  c #07A50F",
"x  c #00AC13",
"c  c #04AB1A",
"v  c #2AAC07",
"b  c #149A23",
"n  c #09AE26",
"m  c #06B124",
"M  c #16B535",
"N  c #1CB72E",
"B  c #2DAF2F",
"V  c #499117",
"C  c #7F8917",
"Z  c #4AB80D",
"A  c #518538",
"S  c #4BB032",
"D  c #61AA2E",
"F  c #65AE32",
"G  c #75A321",
"H  c #69AC18",
"J  c #19C519",
"K  c #3FCF13",
"L  c #3BD50D",
"P  c #2CC222",
"I  c #3FC23C",
"U  c #4BCF05",
"Y  c #5CDC0E",
"T  c #4AD31C",
"R  c #71D217",
"E  c #5DE607",
"W  c #65E90D",
"Q  c #68EB0E",
"!  c #63E210",
"~  c #6AEB15",
"^  c #75E214",
"/  c #75DC2D",
"(  c #73E525",
")  c #76F73F",
"_  c #78E438",
"`  c #2BBC44",
"'  c #27BB41",
"]  c #31BD46",
"[  c #4A9A50",
"{  c #46994B",
"}  c #5AB569",
"|  c #64B375",
" . c #44DB59",
".. c #47DE56",
"X. c #44C259",
"o. c #49E058",
"O. c #6AF159",
"+. c #7AF758",
"@. c #7DC168",
"#. c #8CA815",
"$. c #B8AC1D",
"%. c #C8BF1D",
"&. c #EC9529",
"*. c #C0AA21",
"=. c #D7AB22",
"-. c #FDBA39",
";. c #F3AA27",
":. c #81CF15",
">. c #83E514",
",. c #82EB36",
"<. c #85EB3A",
"1. c #81EA2F",
"2. c #93CD2C",
"3. c #E3CD1B",
"4. c #FCCA24",
"5. c #FED322",
"6. c #E5DD3D",
"7. c #C8D618",
"8. c #C4827C",
"9. c #8ED65A",
"0. c #8AD655",
"q. c #83EB41",
"w. c #96E958",
"e. c #8BF248",
"r. c #AED46B",
"t. c #9BE76C",
"y. c #A3EB6E",
"u. c #99CD75",
"i. c #FFD847",
"p. c #FFD66C",
"a. c #78B281",
"s. c #7FD28A",
"d. c #8F8F8A",
"f. c #90908E",
"g. c #959196",
"h. c #B69693",
"j. c #9DA199",
"k. c #B6BAB8",
"l. c #B6ABAB",
"z. c #C08989",
"x. c #CC9595",
"c. c #E58D8B",
"v. c #E6908E",
"b. c #E59D9A",
"n. c #DAB5B0",
"m. c #EAB5B0",
"M. c #E2A5A5",
"N. c #82D38C",
"B. c #88D691",
"V. c #99D28A",
"C. c #89FF92",
"Z. c #93FF9A",
"A. c #95EF88",
"S. c #B3F48F",
"D. c #BBEF92",
"F. c #9BD0A1",
"G. c #A4DCA9",
"H. c #AFC8B1",
"J. c #BCC0BE",
"K. c #ACCEAD",
"L. c #9EFFA5",
"P. c #AFFCB2",
"I. c #FFDB82",
"U. c #C4C6BC",
"Y. c #C4ECA3",
"T. c #C0E4BE",
"R. c #D4EDBD",
"E. c #D2EEA7",
"W. c #F5EABF",
"Q. c #C6BFC1",
"!. c #C3C5C3",
"~. c #CCCAC3",
"^. c #CFCFCC",
"/. c #D0D2CF",
"(. c #DBDAD5",
"). c #CFD6C0",
"_. c #EBC6C0",
"`. c #EDD6CF",
"'. c #E1DCDC",
"]. c #E7D8D3",
"[. c #C2E4C2",
"{. c #C8E5C6",
"}. c #D8F1C0",
"|. c #DDECD9",
" X c #DEF4D7",
".X c #E8E4DC",
"XX c #E5F4DB",
"oX c #EDEDE6",
"OX c #E8E6E5",
"+X c #F2EEEB",
"@X c #F1F1E9",
"#X c #F8F4EE",
"$X c #F6F1F1",
"%X c #FFFAF7",
"&X c #FFF8F8",
"*X c #F1F0EE",
"=X c None",
/* pixels */
"=X=X=X=X=X=X=X=X=X=X=X=X=X=X5.5.5.5.=X=X=X=X=X=X=X=X=X=X=X=X=X=X",
"=X=X=X=X=X=X=X=X=X=X=X=X=X=X5.5.5.4.=X=X=X=X=X=X=X=X=X=X=X=X=X=X",
"=X=X=X=X=X=X=X=X=X=X=X=X=X5.4.4.5.;.&.=X=X=X=X=X=X=X=X=X=X=X=X=X",
"=X=X=X=X=X=X=X=X=X=X=X=X=X5.-.;.;.&.&.=X=X=X=X=X=X=X=X=X=X=X=X=X",
"=X=X=X=X=X=X=X=X=X=X=X=XR 7.%.$.*.*.$.H =X=X=X=X=X=X=X=X=X=X=X=X",
"=X=X=X=X=X=X=X=X=X=Xm m P ^ ^ ^ ^ ^ ^ P m m =X=X=X=X=X=X=X=X=X=X",
"=X=X=X=X=X=X=X=X=XX.N.N.F.S.e.W W e.S.V.B.s.X.=X=X=X=X=X=X=X=X=X",
"=X=X=X=X=X=X=X=X' s.oX+X|.U.9.W W 9.U.'.*XoXs.` =X=X=X=X=X=X=X=X",
"=X=X=X=X=X=X=X` G.|.oX(.g.. V Q Q V . g.(.oX|.G.` =X=X=X=X=X=X=X",
"=X=X=X=X=X=Xx ` {.&X.Xf.> > F Q Q D : > d..X&X{.` x =X=X=X=X=X=X",
"=X=X=X=X=X=Xx ` P.%X(.= = [.y.Q W y.~.= = (.&X[.` x =X=X=X=X=X=X",
"=X=X=X=X=X=Xx ` ).&X(..   j.9.Q W 9.j.  . (.&X[.` c =X=X=X=X=X=X",
"=X=X=X=X=X=Xx ' {.&X|., . - F Q Q D - . , |.&X[.' x =X=X=X=X=X=X",
"=X=X=X=X=X=Xx ] K.$XOX!.<   l ~ ~ l   < !.OX+XT.] m =X=X=X=X=X=X",
"=X=X=X=X=XoXr.2.y.E.@XoXn.f.@.+.e.| d.U.OX@XE.y.B.r.5.=X=X=X=X=X",
"=X=X=X=X=XW.p.3.>.w.R. X|. XP.s.C.P. X X XR.w.,.E.I.4.=X=X=X=X=X",
"=X=X=X=X=Xi.-.=.>.~ +.y.L.L.Z.Z.C.L.L.L.A.<.~ >.i.-.&.=X=X=X=X=X",
"=X=X=X=X=X#.#.G Z U W +.O. . .o. . .o.O.) Q U U :.G #.=X=X=X=X=X",
"=X=X=X=X=Xs j c s v Y ! T N M N N M N T ! Y v d c j s =X=X=X=X=X",
"=X=X=X=X=X=Xs d j k g h S G.G.G.K.K.| B g g k j a s =X=X=X=X=X=X",
"=X=X=X=X=X=X$ # k j a f S Y.XX$XOX).V.S s s z k # + =X=X=X=X=X=X",
"=X=X=X=X=X=X8 3 @ d c K ! ^ D.oX~.u.^ ! T c d o 3 8 =X=X=X=X=X=X",
"=X=X=X=X=Xu y 9 & # m J L W <.t.9./ W L J m # 2 9 y u =X=X=X=X=X",
"=X=X=X=X=Xu u 0 2 * c M I _ ,.,._ <._ I n m * 2 0 y u =X=X=X=X=X",
"=X=X=Xy u y q 7 + a M | H.R.}.R.R.}.R.H.| n a + 7 q r r r =X=X=X",
"=X=X`.i i b.t 2 o b } H.'.OX+X+X$X+X+X'.H.} b o 2 t b.i 8.`.=X=X",
"=X=X.Xv.v.`.8.& o { k.'.+X+X@X@X+X@X@X@X'.k.{ o & t .Xv.v..X=X=X",
"=X=X=X=X=X=XA O X [ J.'.@X@X@X@X@X@X+X+XOXJ.[ s O A =X=X=X=X=X=X",
"=X=X=X=X=X=X% + + ; h.].@X@X+X+X@X@X@X@X(.h.; + $ % =X=X=X=X=X=X",
"=X=X=X=X=Xu 9 6 6 4 5 n.@XoXoX+XoXoX@X@Xn.5 1 6 6 0 y =X=X=X=X=X",
"=X=X=X=Xm.p c.M.x.e 5 e x.^./.^.^./.~.x.e w e x.M.c.p m.=X=X=X=X",
"=X=X=X@X_.i m.oX!.z.w 1 7 l.k.k.k.J.l.7 1 w z.!.XXm.i _.#X=X=X=X"
};
