/* XPM */
static char *result[] = {
/* columns rows colors chars-per-pixel */
"32 32 226 2 ",
"   c #1B1B1B",
".  c #0E0E0E",
"X  c #2D2C2D",
"o  c #3C3A3E",
"O  c #007D01",
"+  c #0B7B04",
"@  c #336A0C",
"#  c #2A530E",
"$  c #525916",
"%  c #427519",
"&  c #44513A",
"*  c #5B6A24",
"=  c #72793A",
"-  c #4A474C",
";  c #635E5E",
":  c #7F7D57",
">  c #645D67",
",  c #676565",
"<  c #7A7879",
"1  c #B13735",
"2  c #AB2D2D",
"3  c #C13D3D",
"4  c #885131",
"5  c #A54438",
"6  c #B1413C",
"7  c #8A753A",
"8  c #B74343",
"9  c #B55758",
"0  c #B4504A",
"q  c #9B7B52",
"w  c #B87A7B",
"e  c #AE6868",
"r  c #C8494A",
"t  c #C75655",
"y  c #D45353",
"u  c #CD655D",
"i  c #E36F5F",
"p  c #E1705C",
"a  c #D85F60",
"s  c #DC6163",
"d  c #D56968",
"f  c #DA7676",
"g  c #C57777",
"h  c #E2696A",
"j  c #E47474",
"k  c #018102",
"l  c #088907",
"z  c #00930D",
"x  c #00960A",
"c  c #1E8916",
"v  c #059B12",
"b  c #188F05",
"n  c #2B8307",
"m  c #2A8507",
"M  c #36840A",
"N  c #36950A",
"B  c #2D9B1C",
"V  c #03AA17",
"C  c #0BB41D",
"Z  c #0DB111",
"A  c #17B619",
"S  c #11AA0F",
"D  c #35B00C",
"F  c #2F902F",
"G  c #08AA26",
"H  c #1AA827",
"J  c #07B224",
"K  c #1AB523",
"L  c #18B634",
"P  c #24B22E",
"I  c #51940F",
"U  c #738E17",
"Y  c #40BE08",
"T  c #609B36",
"R  c #70AB2D",
"E  c #52AC30",
"W  c #1DC11A",
"Q  c #27C419",
"!  c #3BD312",
"~  c #37CB12",
"^  c #3AD42E",
"/  c #52CA07",
"(  c #5ADA0F",
")  c #4BD716",
"_  c #57DB17",
"`  c #4DCB0E",
"'  c #67D718",
"]  c #5DE212",
"[  c #54E116",
"{  c #65EA09",
"}  c #66E80B",
"|  c #62E411",
" . c #6BE912",
".. c #69E516",
"X. c #75E716",
"o. c #77E80A",
"O. c #4FCF2A",
"+. c #74DD2B",
"@. c #6ECC2F",
"#. c #73E424",
"$. c #7DE333",
"%. c #76F12F",
"&. c #31BC48",
"*. c #5D8640",
"=. c #718B49",
"-. c #47A849",
";. c #649E66",
":. c #69A966",
">. c #7AB173",
",. c #3CC257",
"<. c #4AC65E",
"1. c #44DC59",
"2. c #48CC48",
"3. c #7FCD53",
"4. c #56E45C",
"5. c #78EE59",
"6. c #50C865",
"7. c #6DD375",
"8. c #908B19",
"9. c #90B512",
"0. c #A9B718",
"q. c #B5BD1C",
"w. c #BC8E21",
"e. c #BE9221",
"r. c #A4A225",
"t. c #D49528",
"y. c #E79129",
"u. c #EC942A",
"i. c #EC9B27",
"p. c #F3932B",
"a. c #F39C29",
"s. c #E68938",
"d. c #EA8E2A",
"f. c #F1AC26",
"g. c #FCAF33",
"h. c #EFAC26",
"j. c #C9B121",
"k. c #8BCA19",
"l. c #B5CD17",
"z. c #83DA31",
"x. c #81EA38",
"c. c #99E532",
"v. c #B1E216",
"b. c #D2D51B",
"n. c #FCC423",
"m. c #FECC23",
"M. c #FFD421",
"N. c #F6D72F",
"B. c #C0E53E",
"V. c #83837F",
"C. c #87AE77",
"Z. c #DA807D",
"A. c #E3807F",
"S. c #A3CC4C",
"D. c #99EE59",
"F. c #99D070",
"G. c #89F36C",
"H. c #A1E973",
"J. c #FCD444",
"K. c #FFD256",
"L. c #E4C340",
"P. c #FEDD66",
"I. c #7CB783",
"U. c #8D8A8B",
"Y. c #9D9A9A",
"T. c #BB9A99",
"R. c #B58E90",
"E. c #A7AD88",
"W. c #BCA6A6",
"Q. c #B6B6B4",
"!. c #B9BBBA",
"~. c #ACA6A9",
"^. c #CE9291",
"/. c #E89796",
"(. c #E38485",
"). c #CEAB9E",
"_. c #CCB9B9",
"`. c #CEABA6",
"'. c #E6B1AD",
"]. c #EFB1B0",
"[. c #96DB98",
"{. c #97CF8C",
"}. c #ABC788",
"|. c #97FF9D",
" X c #8CFF95",
".X c #B6ED8A",
"XX c #AFEF89",
"oX c #9CD2A3",
"OX c #A4DDAA",
"+X c #B5D6B0",
"@X c #9FFFA5",
"#X c #B8FBBA",
"$X c #CEE791",
"%X c #F9E38D",
"&X c #CAC8B6",
"*X c #D6EDBF",
"=X c #D1E6A6",
"-X c #F7E7B3",
";X c #CDCCCA",
":X c #C8C7C3",
">X c #D6CCCB",
",X c #CBD9C5",
"<X c #D4D3CF",
"1X c #D4D5D2",
"2X c #EDD0CA",
"3X c #D6E9C8",
"4X c #DFF0CA",
"5X c #DAE7D4",
"6X c #DBF3D5",
"7X c #C5F9C4",
"8X c #E5E6DF",
"9X c #E7E6D7",
"0X c #E2F5DC",
"qX c #F6EDD9",
"wX c #E4DDE3",
"eX c #DFE8E2",
"rX c #ECEDE6",
"tX c #E8E5E5",
"yX c #F4EFEF",
"uX c #EFF0E7",
"iX c #F2F1EA",
"pX c #F3F0E6",
"aX c #F6F2F1",
"sX c #FAF0F1",
"dX c #F7EEF4",
"fX c None",
/* pixels */
"fXfXfXfXfXfXfXfXfXfXfXfXfXfXM.M.fXfXfXfXfXfXfXfXfXfXfXfXfXfXfXfX",
"fXfXfXfXfXfXfXfXfXfXfXfXfXfXM.m.f.fXfXfXfXfXfXfXfXfXfXfXfXfXfXfX",
"fXfXfXfXfXfXfXfXfXfXfXfXfXM.M.m.i.d.fXfXfXfXfXfXfXfXfXfXfXfXfXfX",
"fXfXfXfXfXfXfXfXfXfXfXfXM.M.M.m.a.p.fXfXfXfXfXfXfXfXfXfXfXfXfXfX",
"fXfXfXfXfXfXfXfXfXfXfXb.b.b.l.q.r.U fXfXfXfXfXfXfXfXfXfXfXfXfXfX",
"fXfXfXfXfXfXJ K _  . .X.X.X.O.K K v b 0.M.M.M.n.i.y.fXfXfXfXfXfX",
"fXfXfXfXfXV 6.[..XD... .%.XX[.7.O.Z V I 0.M.n.h.i.y.fXfXfXfXfXfX",
"fXfXfXfXfX&.[.tX>XF...Y z.4XdX4XD.O.A z N q.h.y.y.fXfXfXfXfXfXfX",
"fXfXfXO -.+X1X~.- M _ # & !.tXrX4XH.) A v N 8.y.fXfXfXfXfXfXfXfX",
"fXfXfXz -.5X~., ; T ' =., , Q.iXsX.X .! A k 8.a.n.fXfXfXfXfXfXfX",
"fXfXfXV <.3X, X Q.XX%..XY.  U.iXaX.X .} ` l U t.n.M.fXfXfXfXfXfX",
"fXfXfXV 6.,X;   U.F.+.}.< . < aXaX.X..{ ) S b U b.m.M.fXfXfXfXfX",
"fXfXfXV <.6XU.o - T ' = - o Y.iXaX.X .{ ) C z m j.m.M.M.fXfXfXfX",
"fXfXfXV <.5X<XU.X @ ( # o Y.1XiXiX.X . .) C z n e.g.M.M.M.fXfXfX",
"fXfX5XS.S.;XwX;XY.>.5.C.Y.1XdXqX%X$X.XB.k.C x n w.a.f.n.fXfXfXfX",
"fX=X-XK.L.}.,X6X6X#X|.7X0X0X6X=XN.P.-XK.q.A x n w.u.y.fXfXfXfXfX",
"J R J.g.j.x.G.@X@X@X X@X|.|.G.c.N.M.J.g.r.A x n w.p.fXfXfXfXfXfX",
"V D k.q.9.! ^ ,.,.1.1.1.4.5.%.o.v.l.9.0.R C x M w.p.fXfXfXfXfXfX",
"O z C ) O.L L L L L L J Q [ | | ( D b / _ C x n w.p.fXfXfXfXfXfX",
"fXk x Z 2.OX+XOXOXoXI.O.~ Q W A S D ` | ) C z n w.p.u.fXfXfXfXfX",
"fXfXk v <.OX6XdXuX,X}.$._ Q A A b /  .[ ~ V x m w.u.y.fXfXfXfXfX",
"fXfXfXfXfXP [.5X:XF.#.} } | ] ] ( } ] Q V k k @ e.p.y.fXfXfXfXfX",
"fXfXfXfXfX=.:.7.3.#.{ { { { {  .{ _ Q V c = 7 7 t.u.fXfXfXfXfXfX",
"fXfXfXfXfXu = P @.$.$.$.x.x.x.#.( ~ V + * u h h s.s.fXfXfXfXfXfX",
"fXfXfXs s y 5 4 E.+X*X*X3X*X&XC.B k l $ 5 t s h i p fXfXfXfXfXfX",
"fXfX`.d y y 9 w _.tXyXyXsXiXwX+X:.F + $ 4 1 y s s h fXfXfXfXfXfX",
"fXfXQ.g r 9 ^.:X8XiXiXuXuXuXiX8X!.;.l O @ 5 8 t d j h fXfXfXfXfX",
"fXfXfXW.w 8 ^.tXuXiXuXiXuXuXiXrX;X:.k k F `.f a ]./.j ].fXfXfXfX",
"fXfXfXT.w 8 ^.rXuXiXiXiXiXiXtX<XT.: @ @ =.&X(.f >XW.q E.+XfXfXfX",
"fXfXt t t r R.:X8XrXrXrXiXrX1XW.9 6 0 9 t h h j `.>.c H E t.fXfX",
"!._./.d 3 6 0 w _.<X<X;X<X;XT.9 r 9 ^././.h /.].^.E.>.H b I M k ",
"Q.1XwXZ.3 2 2 0 ~.!.Q.Q.!.Q.e 2 r g !.tX2XA.].2X(./.9X-.O k k k "
};
