/* XPM */
static char *result[] = {
/* columns rows colors chars-per-pixel */
"32 32 226 2 ",
"   c #1B1B1B",
".  c #0E0E0E",
"X  c #2D2C2D",
"o  c #3C3A3E",
"O  c #007D01",
"+  c #0B7B04",
"@  c #336A0C",
"#  c #2A530E",
"$  c #525916",
"%  c #427519",
"&  c #44513A",
"*  c #5B6A24",
"=  c #72793A",
"-  c #4A474C",
";  c #635E5E",
":  c #7F7D57",
">  c #645D67",
",  c #676565",
"<  c #7A7879",
"1  c #B13735",
"2  c #AB2D2D",
"3  c #C13D3D",
"4  c #885131",
"5  c #A54438",
"6  c #B1413C",
"7  c #8A753A",
"8  c #B74343",
"9  c #B55758",
"0  c #B4504A",
"q  c #9B7B52",
"w  c #B87A7B",
"e  c #AE6868",
"r  c #C8494A",
"t  c #C75655",
"y  c #D45353",
"u  c #CD655D",
"i  c #E36F5F",
"p  c #E1705C",
"a  c #D85F60",
"s  c #DC6163",
"d  c #D56968",
"f  c #DA7676",
"g  c #C57777",
"h  c #E2696A",
"j  c #E47474",
"k  c #018102",
"l  c #088907",
"z  c #00930D",
"x  c #00960A",
"c  c #1E8916",
"v  c #059B12",
"b  c #188F05",
"n  c #2B8307",
"m  c #2A8507",
"M  c #36840A",
"N  c #36950A",
"B  c #2D9B1C",
"V  c #03AA17",
"C  c #0BB41D",
"Z  c #0DB111",
"A  c #17B619",
"S  c #11AA0F",
"D  c #35B00C",
"F  c #2F902F",
"G  c #08AA26",
"H  c #1AA827",
"J  c #07B224",
"K  c #1AB523",
"L  c #18B634",
"P  c #24B22E",
"I  c #51940F",
"U  c #738E17",
"Y  c #40BE08",
"T  c #609B36",
"R  c #70AB2D",
"E  c #52AC30",
"W  c #1DC11A",
"Q  c #27C419",
"!  c #3BD312",
"~  c #37CB12",
"^  c #3AD42E",
"/  c #52CA07",
"(  c #5ADA0F",
")  c #4BD716",
"_  c #57DB17",
"`  c #4DCB0E",
"'  c #67D718",
"]  c #5DE212",
"[  c #54E116",
"{  c #65EA09",
"}  c #66E80B",
"|  c #62E411",
" . c #6BE912",
".. c #69E516",
"X. c #75E716",
"o. c #77E80A",
"O. c #4FCF2A",
"+. c #74DD2B",
"@. c #6ECC2F",
"#. c #73E424",
"$. c #7DE333",
"%. c #76F12F",
"&. c #31BC48",
"*. c #5D8640",
"=. c #718B49",
"-. c #47A849",
";. c #649E66",
":. c #69A966",
">. c #7AB173",
",. c #3CC257",
"<. c #4AC65E",
"1. c #44DC59",
"2. c #48CC48",
"3. c #7FCD53",
"4. c #56E45C",
"5. c #78EE59",
"6. c #50C865",
"7. c #6DD375",
"8. c #908B19",
"9. c #90B512",
"0. c #A9B718",
"q. c #B5BD1C",
"w. c #BC8E21",
"e. c #BE9221",
"r. c #A4A225",
"t. c #D49528",
"y. c #E79129",
"u. c #EC942A",
"i. c #EC9B27",
"p. c #F3932B",
"a. c #F39C29",
"s. c #E68938",
"d. c #EA8E2A",
"f. c #F1AC26",
"g. c #FCAF33",
"h. c #EFAC26",
"j. c #C9B121",
"k. c #8BCA19",
"l. c #B5CD17",
"z. c #83DA31",
"x. c #81EA38",
"c. c #99E532",
"v. c #B1E216",
"b. c #D2D51B",
"n. c #FCC423",
"m. c #FECC23",
"M. c #FFD421",
"N. c #F6D72F",
"B. c #C0E53E",
"V. c #83837F",
"C. c #87AE77",
"Z. c #DA807D",
"A. c #E3807F",
"S. c #A3CC4C",
"D. c #99EE59",
"F. c #99D070",
"G. c #89F36C",
"H. c #A1E973",
"J. c #FCD444",
"K. c #FFD256",
"L. c #E4C340",
"P. c #FEDD66",
"I. c #7CB783",
"U. c #8D8A8B",
"Y. c #9D9A9A",
"T. c #BB9A99",
"R. c #B58E90",
"E. c #A7AD88",
"W. c #BCA6A6",
"Q. c #B6B6B4",
"!. c #B9BBBA",
"~. c #ACA6A9",
"^. c #CE9291",
"/. c #E89796",
"(. c #E38485",
"). c #CEAB9E",
"_. c #CCB9B9",
"`. c #CEABA6",
"'. c #E6B1AD",
"]. c #EFB1B0",
"[. c #96DB98",
"{. c #97CF8C",
"}. c #ABC788",
"|. c #97FF9D",
" X c #8CFF95",
".X c #B6ED8A",
"XX c #AFEF89",
"oX c #9CD2A3",
"OX c #A4DDAA",
"+X c #B5D6B0",
"@X c #9FFFA5",
"#X c #B8FBBA",
"$X c #CEE791",
"%X c #F9E38D",
"&X c #CAC8B6",
"*X c #D6EDBF",
"=X c #D1E6A6",
"-X c #F7E7B3",
";X c #CDCCCA",
":X c #C8C7C3",
">X c #D6CCCB",
",X c #CBD9C5",
"<X c #D4D3CF",
"1X c #D4D5D2",
"2X c #EDD0CA",
"3X c #D6E9C8",
"4X c #DFF0CA",
"5X c #DAE7D4",
"6X c #DBF3D5",
"7X c #C5F9C4",
"8X c #E5E6DF",
"9X c #E7E6D7",
"0X c #E2F5DC",
"qX c #F6EDD9",
"wX c #E4DDE3",
"eX c #DFE8E2",
"rX c #ECEDE6",
"tX c #E8E5E5",
"yX c #F4EFEF",
"uX c #EFF0E7",
"iX c #F2F1EA",
"pX c #F3F0E6",
"aX c #F6F2F1",
"sX c #FAF0F1",
"dX c #F7EEF4",
"fX c None",
/* pixels */
"fXfXfXfXfXfXfXfXfXfXfXfXfXfXfXfXM.M.fXfXfXfXfXfXfXfXfXfXfXfXfXfX",
"fXfXfXfXfXfXfXfXfXfXfXfXfXfXfXf.m.M.fXfXfXfXfXfXfXfXfXfXfXfXfXfX",
"fXfXfXfXfXfXfXfXfXfXfXfXfXfXy.i.n.M.M.fXfXfXfXfXfXfXfXfXfXfXfXfX",
"fXfXfXfXfXfXfXfXfXfXfXfXfXfXp.a.m.M.M.M.fXfXfXfXfXfXfXfXfXfXfXfX",
"fXfXfXfXfXfXfXfXfXfXfXfXfXfXU r.0.l.b.b.b.fXfXfXfXfXfXfXfXfXfXfX",
"fXfXfXfXfXfXy.i.n.M.M.M.0.b V K K O.X.}  .} X.[ K J fXfXfXfXfXfX",
"fXfXfXfXfXfXy.y.h.n.m.0.I V Z ) 7.[.XXD.{  .D..X[.6.V fXfXfXfXfX",
"fXfXfXfXfXfXfXy.y.h.q.N z A O.D.4XdX5Xz./ ..F.;XtX[.&.fXfXfXfXfX",
"fXfXfXfXfXfXfXfXu.8.N v A ) H.0XpXwXQ.& @ ( % - ~.1X+X-.O fXfXfX",
"fXfXfXfXfXfXfXn.p.8.k Z )  ..XaXiXQ., > =.' T , , ~.5X-.z fXfXfX",
"fXfXfXfXfXfXM.n.t.U b ` {  ..XaXiXV.  Y..X$..XQ.X , 3X<.V fXfXfX",
"fXfXfXfXfXM.M.b.U b V ) {  ..XaXaX< . < {.#.F.U.  ; 5X<.V fXfXfX",
"fXfXfXfXM.M.m.j.m z C ) {  ..XaXiXY.- - *.' T - o U.5X<.V fXfXfX",
"fXfXfXM.M.M.f.e.n z C )  ....XaXiX1XY.o # / @ X U.;X5X<.V fXfXfX",
"fXfXfXfXn.h.a.w.n z C k.B..X$X%XqXyX1XY.C.5.>.Y.;XwX;XS.S.6XfXfX",
"fXfXfXfXfXy.p.w.n z A q.K.-XK.N.=X6X0X0X7X|.#X6X6X,X}.L.K.-X=XfX",
"fXfXfXfXfXfXu.t.n x A r.g.N.N.M.c.G.|.@X@X X|.@X@XG.z.j.g.J.@.G ",
"fXfXfXfXfXfXp.w.n z A R 0.9.l.v.o.%.5.4.1.1.1.,.,.^ ! 9.q.k.D v ",
"fXfXfXfXfXfXp.w.n z C ) ` b D } | | ] Q L L L L L L L ) ) G z O ",
"fXfXfXfXfXy.u.w.n z C ) | ` D b A W W ! O.I.oXOXOX#XOX2.Z z l fX",
"fXfXfXfXfXy.u.w.n l V Q ] } D S A W Q ( +.}.;XtXsX5XOX,.v k fXfX",
"fXfXfXfXfXy.p.w.M O l V Q ] } | ] | ] }  ...F.!.tX[.L fXfXfXfXfX",
"fXfXfXfXfXfXy.s.7 7 = c V Q [  .{ { { { { { $.D.7.:.=.fXfXfXfXfX",
"fXfXfXfXfXfXd.s.i h u * + V Q ( #.$.x.x.$.$.$.O.B T s fXfXfXfXfX",
"fXfXfXfXfXfXp i h s t 1 $ l l B C.&X*X3X3X*X+XE.4 6 y s h fXfXfX",
"fXfXfXfXfXfXh s a t 1 4 $ + F ;.+XtXiXaXiXiXwX:Xw t y y d W.fXfX",
"fXfXfXfXfXh j d t r 5 % O k ;.!.tXiXuXiXpXiXiXtX:XR.t r g Q.fXfX",
"fXfXfXfX2Xj /.'.u Z.).F O k :.;XrXiXuXpXiXrXuXuXtX^.8 w T.fXfXfX",
"fXfXfX+XE.q ).>Xf (._.=.@ % =.T.<XrXiXiXuXuXiXuXtX^.8 w ^.fXfXfX",
"fXfXt.E H c >.`.f h j t 8 0 8 9 W.<XrXrXrXrXuXtX&XR.r t t t fXfX",
"k M I b H >.E.^.'./.h /.'.^.t 8 9 R.;X<X;X1X1X_.w 9 8 r d /._.Q.",
"k O O + -.wX/.A.2X'.j 2XwXQ.g r 1 e Q.!.Q.Q.!.Y.8 2 1 1 (.8X1XQ."
};
