/* XPM */
static char *result[] = {
/* columns rows colors chars-per-pixel */
"32 32 150 2 ",
"   c #EDA31F",
".  c #DE7F38",
"X  c #C13C67",
"o  c #C03A69",
"O  c #DE7D3B",
"+  c #EDA121",
"@  c #ECA121",
"#  c #ECA120",
"$  c #EDA21F",
"%  c #DD7E39",
"&  c #C03A68",
"*  c #EB9F21",
"=  c #F29B35",
"-  c #E17948",
";  c #C23A6D",
":  c #DE7D3A",
">  c #EE9F26",
",  c #F09B31",
"<  c #F19936",
"1  c #F19A36",
"2  c #E17849",
"3  c #C1386D",
"4  c #EE9F27",
"5  c #F09737",
"6  c #FA8C5F",
"7  c #E76E68",
"8  c #C43677",
"9  c #C03B67",
"0  c #DD7E38",
"q  c #F09C30",
"w  c #F69050",
"e  c #F98A61",
"r  c #FA8B60",
"t  c #E76D68",
"y  c #C33577",
"u  c #F09C31",
"i  c #F88862",
"p  c #FF8676",
"a  c #EB6979",
"s  c #C5347C",
"d  c #C03B65",
"f  c #DE8036",
"g  c #F29C35",
"h  c #FA8C60",
"j  c #FF8478",
"k  c #FF8577",
"l  c #C4337D",
"z  c #F29C36",
"x  c #FA8C61",
"c  c #FE8278",
"v  c #FF8775",
"b  c #EC6A78",
"n  c #C5357C",
"m  c #C03C65",
"M  c #DE8136",
"N  c #F39D34",
"B  c #FB8D60",
"V  c #EB6978",
"C  c #C4347C",
"Z  c #F39D35",
"A  c #FE8378",
"S  c #EB6A77",
"D  c #DC557A",
"F  c #C02D7D",
"G  c #BC326C",
"H  c #D26549",
"J  c #E27B47",
"K  c #E87067",
"L  c #EB6A78",
"P  c #DC547A",
"I  c #BF2C7D",
"U  c #E27B48",
"Y  c #B7207E",
"T  c #B52279",
"R  c #BD326E",
"E  c #C23A6C",
"W  c #C43876",
"Q  c #C5367B",
"!  c #C43776",
"~  c #C6367B",
"^  c #C03A67",
"/  c #C13D66",
"(  c #BC326D",
")  c #B52278",
"_  c #BC336C",
"`  c #C13C66",
"'  c #B62377",
"]  c #B21B7D",
"[  c #DE7E39",
"{  c #DF8137",
"}  c #DE8137",
"|  c #D2654A",
" . c #BC326E",
".. c #D3654B",
"X. c #DF8037",
"o. c #D3654A",
"O. c #BD336C",
"+. c #B21A7E",
"@. c #E27A48",
"#. c #C1396D",
"$. c #C03B68",
"%. c #DE8038",
"&. c #F0A224",
"*. c #F19E2F",
"=. c #C23B6B",
"-. c #E76F68",
";. c #C03B66",
":. c #DE7F37",
">. c #F7924F",
",. c #E86F67",
"<. c #C43875",
"1. c #EB6977",
"2. c #B21B7C",
"3. c #C5367A",
"4. c #E17949",
"5. c #E76F67",
"6. c #DC5579",
"7. c #C02E7C",
"8. c #B11A7D",
"9. c #B7217E",
"0. c #BD336D",
"q. c #B52377",
"w. c #D3664A",
"e. c #DE8037",
"r. c #F39E33",
"t. c #F0A225",
"y. c #FB8E5F",
"u. c #F19E30",
"i. c #F79250",
"p. c #E76E67",
"a. c #DC5578",
"s. c #BD346B",
"d. c #D36649",
"f. c #DC5678",
"g. c #C1307B",
"h. c #B21C7C",
"j. c #C23B6C",
"k. c #C43775",
"l. c #C12F7B",
"z. c #B8237C",
"x. c #B72577",
"c. c #BE356C",
"v. c #B8247C",
"b. c #B31D7C",
"n. c #B21A7F",
"m. c #B41D7C",
"M. c #B41D7D",
"N. c #B31B7E",
"B. c #B41E7C",
"V. c white",
/* pixels */
"  . X o O + @ # $ % & o O + @ # $ % & o O + @ # $ % & o O + @ * ",
"= - ; & : > , < 1 2 3 & : > , < 1 2 3 & : > , < 1 2 3 & : 4 , 5 ",
"6 7 8 9 0 q w e r t y 9 0 q w e r t y 9 0 q w e r t y 9 0 u w i ",
"p a s d f g h j k a l d f g h j k a l d f g h j k a l d f z x c ",
"v b n m M N B k p V C m M N B k p V C m M N B k p V C m M Z B A ",
"S D F G H J K b L P I G H J K b L P I G H J K b L P I G H U K V ",
"s F Y T R E W Q s F Y T R E W Q s F Y T R E W Q s F Y T R ; ! ~ ",
"^ 9 / / X ( ) ) _ ` / / X ( ) ) _ ` / / X ( ) ) _ ` / / X ( ' ] ",
"% [ . { } | (  ...X.{ { } | (  ...X.{ { } | (  ...X.{ { } o.O.+.",
"+ > q g N @.#.$.%.&.*.g N @.#.$.%.&.*.g N @.#.$.%.&.*.g N J =.+.",
"@ , w h B -.y ;.:.*.>.h B -.y ;.:.*.>.h B -.y ;.:.*.>.h B ,.<.] ",
"# < e j k a l d f g h j k a l d f g h j k a l d f g h j k 1.Q 2.",
"$ 1 r k p V C m M N B k p V C m M N B k p V C m M N B k p S 3.2.",
"% 4.5.b L P I G H J K b L P I G H J K b L P I G H J K b L 6.7.8.",
"& #.! Q s F Y T R E W Q s F Y T R E W Q s F Y T R E W Q s F 9.+.",
"9 0.q.) _ ` / / X ( ) ) _ ` / / X ( ) ) _ ` / / X ( ) ) _ ` / / ",
"{ w.0. ...X.{ { } | (  ...X.{ { } | (  ...X.{ { } | (  ...X.{ e.",
"r.J E $.%.&.*.g N @.#.$.%.&.*.g N @.#.$.%.&.*.g N @.#.$.%.t.*.1 ",
"y.,.8 ;.:.*.>.h B -.y ;.:.*.>.h B -.y ;.:.*.>.h B -.y ;.:.u.i.e ",
"p a s d f g h j k a l d f g h j k a l d f g h j k a l d f z x c ",
"v b n m M N B k p V C m M N B k p V C m M N B k p V C m M Z B A ",
"S D F G H J K b L P I G H J K b L P I G H J K b L P I G H U K V ",
"s F Y T R E W Q s F Y T R E W Q s F Y T R E W Q s F Y T R ; ! ~ ",
"^ 9 / / X ( ) ) _ ` / / X ( ) ) _ ` / / X ( ) ) _ ` / / X ( ' ] ",
"% [ . { } | (  ...X.{ { } | (  ...X.{ { } | (  ...X.{ { } o.O.+.",
"+ > q g N @.#.$.%.&.*.g N @.#.$.%.&.*.g N @.#.$.%.&.*.g N J =.+.",
"@ , w h B -.y ;.:.*.>.h B -.y ;.:.*.>.h B -.y ;.:.*.>.h B ,.<.] ",
"# < e j k a l d f g h j k a l d f g h j k a l d f g h j k 1.Q 2.",
"$ 1 r k p V C m M N B k p V C m M N B k p V C m M N B k p S 3.2.",
"0 - p.1.S a.7.s.d.J ,.1.S a.7.s.d.J ,.1.S a.7.s.d.J ,.1.S f.g.h.",
"X j.k.Q 3.l.z.x.c.=.<.Q 3.l.z.x.c.=.<.Q 3.l.z.x.c.=.<.Q 3.g.v.b.",
"n.+.] 2.2.h.m.M.N.+.] 2.2.h.m.M.N.+.] 2.2.h.m.M.N.+.] 2.2.h.b.B."
};
