/* XPM */
static char *result[] = {
/* columns rows colors chars-per-pixel */
"32 32 135 2 ",
"   c #125BDB",
".  c #2772E4",
"X  c #509DF4",
"o  c #66B4FD",
"O  c #65B3FC",
"+  c #64B2FC",
"@  c #63B1FC",
"#  c #62B1FC",
"$  c #7AC2FA",
"%  c #A4E0F6",
"&  c #8EC8EE",
"*  c #3A7FE1",
"=  c #246FE3",
"-  c #4E9CF4",
";  c #78C0FA",
":  c #A1DDF6",
">  c #B6ECF4",
",  c #0F59DB",
"<  c #2570E3",
"1  c #65B3FD",
"2  c #64B2FD",
"3  c #62B0FC",
"4  c #61B0FC",
"5  c #79C1FB",
"6  c #A4E0F7",
"7  c #8EC8ED",
"8  c #387DE1",
"9  c #216DE3",
"0  c #4D9BF4",
"q  c #77C0FA",
"w  c #B7ECF4",
"e  c #0E58DA",
"r  c #64B3FD",
"t  c #63B2FD",
"y  c #60AFFC",
"u  c #78C1FB",
"i  c #8DC7ED",
"p  c #377CE0",
"a  c #206CE3",
"s  c #4C9AF4",
"d  c #77BFFA",
"f  c #A1DCF6",
"g  c #3B80E1",
"h  c #4B91E8",
"j  c #6AB1F4",
"k  c #7BC3FB",
"l  c #79C1FA",
"z  c #8ACDF9",
"x  c #ABE4F6",
"c  c #9AD2EF",
"v  c #5A9BE6",
"b  c #498FE8",
"n  c #69B1F4",
"m  c #89CCF9",
"M  c #A8E2F6",
"N  c #B8EDF4",
"B  c #91CBEF",
"V  c #96D0F1",
"C  c #A0DBF5",
"Z  c #A5E0F7",
"A  c #A3DFF6",
"S  c #A2DDF6",
"D  c #A4DFF7",
"F  c #AAE4F6",
"G  c #B4EBF5",
"H  c #AFE5F3",
"J  c #9AD3F0",
"K  c #95D0F0",
"L  c #9FDAF5",
"P  c #A9E3F6",
"I  c #B3EAF5",
"U  c #B8EEF5",
"Y  c #90CAEE",
"T  c #8FC9EE",
"R  c #8DC8ED",
"E  c #98D1EF",
"W  c #ADE4F2",
"Q  c #AEE4F3",
"!  c #99D2F0",
"~  c #8DC7EE",
"^  c #8DC8EE",
"/  c #8CC7EE",
"(  c #599AE6",
")  c #9BD4F0",
"_  c #5B9CE6",
"`  c #387EE1",
"'  c #397EE1",
"]  c #3A7EE1",
"[  c #3B7FE1",
"{  c #95D0F1",
"}  c #397FE1",
"|  c #115CDD",
" . c #1C68E1",
".. c #8EC9EE",
"X. c #3D8AEE",
"o. c #4F9DF4",
"O. c #68B6FE",
"+. c #67B5FD",
"@. c #A5E0F6",
"#. c #8FC9ED",
"$. c #236EE3",
"%. c #4E9BF4",
"&. c #63B2FC",
"*. c #65B4FD",
"=. c #A6E1F6",
"-. c #397DE0",
";. c #226DE3",
":. c #55A3F6",
">. c #5FADFA",
",. c #74BEFB",
"<. c #95D5F8",
"1. c #84C3F1",
"2. c #448BE7",
"3. c #337FE9",
"4. c #54A1F6",
"5. c #64B3FC",
"6. c #69B6FC",
"7. c #74BDFB",
"8. c #6EB7F9",
"9. c #5AA6F5",
"0. c #54A2F6",
"q. c #69B5FC",
"w. c #73BCFB",
"e. c #3681E9",
"r. c #55A2F6",
"t. c #73BDFA",
"y. c #92D2F7",
"u. c #A3DEF6",
"i. c #1059DA",
"p. c #4F9CF4",
"a. c #79C0FA",
"s. c #105ADB",
"d. c #2671E3",
"f. c #509CF4",
"g. c white",
/* pixels */
"  . X o O + + + + + + @ # $ % & * = - o O + + + + + + @ # ; : > ",
"  . X o O + + + + + + @ # $ % & * = - o O + + + + + + @ # ; : > ",
"  . X o O + + + + + + @ # $ % & * = - o O + + + + + + @ # ; : > ",
", < - 1 2 @ @ @ @ @ @ 3 4 5 6 7 8 9 0 1 2 @ @ @ @ @ @ 3 4 q : w ",
"e = 0 r t # # # # # # 4 y u 6 i p a s r t # # # # # # 4 y d f w ",
"g h j k k l ; ; l $ $ 5 u z x c v b n k k l ; ; l $ $ 5 u m M N ",
"B V C Z Z A S S A Z 6 6 D F G H J K L Z Z A S S A Z 6 6 D P I U ",
"Y Y T R i E W Q ! & & & & & ~ ^ T Y T R i E W Q ! & & & & & ~ / ",
"g g * 8 p ( J ) _ ` ' * * ] ' ' [ g * 8 p ( J ) _ ` ' * * ] ' ' ",
"= = = 9 a b { Y } |  .= = = = = = = = 9 a b { Y } |  .= = = = = ",
"- - - 0 s n L ..'  .X.X o.- - - - - - 0 s n L ..'  .X.X o.- - - ",
"o o o 1 r k Z & * = X O.+.o o o o o o 1 r k Z & * = X O.+.o o o ",
"O O O 2 t k Z & * = o.+.o O O O O O O 2 t k Z & * = o.+.o O O O ",
"O O + @ # $ @.#.' $.%.o O + @ &.O O + @ # $ @.#.' $.%.o O + @ @ ",
"o *.+ @ # $ =.#.-.;.%.o O &.# @ 1 o O @ # $ =.#.-.;.%.o O + @ # ",
"X :.>.+ @ ,.<.1.2.3.4.1 5.6.7.8.9.0.>.+ @ ,.<.1.2.3.4.1 5.q.w.; ",
"< e.r.1 5.6.7.8.9.0.>.+ @ ,.<.1.2.3.4.1 5.6.7.8.9.0.>.+ @ t.y.u.",
"i.< p.o O &.# @ 1 o O @ # $ =.#.-.;.%.o O &.# @ 1 o O @ # a.u.N ",
"s.d.f.o O + @ &.O O + @ # $ @.#.' $.%.o O + @ &.O O + @ # ; S N ",
", < - 1 2 @ @ @ @ @ @ 3 4 5 6 7 8 9 0 1 2 @ @ @ @ @ @ 3 4 q : w ",
"e = 0 r t # # # # # # 4 y u 6 i p a s r t # # # # # # 4 y d f w ",
"g h j k k l ; ; l $ $ 5 u z x c v b n k k l ; ; l $ $ 5 u m M N ",
"B V C Z Z A S S A Z 6 6 D F G H J K L Z Z A S S A Z 6 6 D P I U ",
"Y Y T R i E W Q ! & & & & & ~ ^ T Y T R i E W Q ! & & & & & ~ / ",
"g g * 8 p ( J ) _ ` ' * * ] ' ' [ g * 8 p ( J ) _ ` ' * * ] ' ' ",
"= = = 9 a b { Y } |  .= = = = = = = = 9 a b { Y } |  .= = = = = ",
"- - - 0 s n L ..'  .X.X o.- - - - - - 0 s n L ..'  .X.X o.- - - ",
"o o o 1 r k Z & * = X O.+.o o o o o o 1 r k Z & * = X O.+.o o o ",
"O O O 2 t k Z & * = o.+.o O O O O O O 2 t k Z & * = o.+.o O O O ",
"+ + + @ # $ % & * = - o O + + + + + + @ # $ % & * = - o O + + + ",
"+ + + @ # $ % & * = - o O + + + + + + @ # $ % & * = - o O + + + ",
"+ + + @ # $ % & * = - o O + + + + + + @ # $ % & * = - o O + + + "
};
