/* XPM */
static char *result[] = {
/* columns rows colors chars-per-pixel */
"32 32 33 1 ",
"  c #F46AFC",
". c #F468FC",
"X c #F466FC",
"o c #F67DFC",
"O c #FAACFC",
"+ c #FCC4FC",
"@ c #FCC3FC",
"# c #FCC2FC",
"$ c #FCC6FC",
"% c #FAAFFC",
"& c #F680FC",
"* c #F469FC",
"= c #FCC5FC",
"- c #F46DFC",
"; c #F578FC",
": c #F78FFC",
"> c #FBB2FC",
", c #FCBFFC",
"< c #FBB4FC",
"1 c #F99DFC",
"2 c #F57AFC",
"3 c #FCBEFC",
"4 c #FAADFC",
"5 c #F467FC",
"6 c #F89BFC",
"7 c #FBB3FC",
"8 c #F891FC",
"9 c #F579FC",
"0 c #F46EFC",
"q c #F790FC",
"w c #F67EFC",
"e c #F99CFC",
"r c white",
/* pixels */
"     .XoO+@##+$%&.*  .XoO+@##@+=",
"   **-;:>+@@@,<12.***-;:>+@@@3>4",
"   *5;673##@=<890  *5;673##@=7qw",
" **-;q<=@@@,<e;5***-;q<=@@@,<6;X",
" *5;e<,@@@=<q;-***5;e<,@@@=<q;-.",
".-;q<=@@@,<e;5***-;q<=@@@,<e;5* ",
"X;6<,@@@=<q;-***5;e<,@@@=<q;-** ",
"o:7=@@@,<e;5***-;q<=@@@,<e;5* **",
"O>3@@@=<q;-***5;e<,@@@=<q;-** ..",
"++#@@,<e;5***-;q<=@@@,<e;5***02&",
"@@#@=<q;-***5;e<,@@@=<q;-***591%",
"#@@,<e;5***-;q<=@@@,<e;5***-;8<$",
"#@=<q;-***5;e<,@@@=<q;-***5;e<,+",
"+,<e;5***-;q<=@@@,<e;5***-;q<=@#",
"$<8;-***5;e<,@@@=<q;-***5;e<,@@#",
"%195***-;q<=@@@,<e;5***-;q<=@#@@",
"&20***5;e<,@@@=<q;-***5;e<,@@#++",
".. **-;q<=@@@,<e;5***-;q<=@@@3>O",
"** *5;e<,@@@=<q;-***5;e<,@@@=7:o",
" **-;q<=@@@,<e;5***-;q<=@@@,<6;X",
" *5;e<,@@@=<q;-***5;e<,@@@=<q;-.",
".-;q<=@@@,<e;5***-;q<=@@@,<e;5* ",
"X;6<,@@@=<q;-***5;e<,@@@=<q;-** ",
"o:7=@@@,<e;5***-;q<=@@@,<e;5* **",
"O>3@@@=<q;-***5;e<,@@@=<q;-** ..",
"++#@@,<e;5***-;q<=@@@,<e;5***02&",
"@@#@=<q;-***5;e<,@@@=<q;-***591%",
"#@@,<e;5***-;q<=@@@,<e;5***-;8<$",
"#@=<q;-***5;e<,@@@=<q;-***5;e<,+",
"@376;5*  098<=@##376;5*  098<=@#",
"+>q;-***.21<,@@@+>:;-***.21<,@@#",
"=4wX.  *.&%$+##@+OoX.  *.&%$+###"
};
