/* XPM */
static char *result[] = {
/* columns rows colors chars-per-pixel */
"32 32 121 2 ",
"   c #FDFFFF",
".  c #F9EACE",
"X  c #F2B95D",
"o  c #EE9E20",
"O  c #EE9F22",
"+  c #EEA025",
"@  c #EFA125",
"#  c #D78818",
"$  c #AD5D06",
"%  c #B27944",
"&  c #E4D7CA",
"*  c #FBEED3",
"=  c #F3BA5E",
"-  c #D88A1C",
";  c #AF610C",
":  c #9A4C03",
">  c #F1D2A0",
",  c #E1A248",
"<  c #D88818",
"1  c #D88817",
"2  c #D88919",
"3  c #D8891A",
"4  c #D88A1B",
"5  c #DF911F",
"6  c #E99B23",
"7  c #AD5E07",
"8  c #B17235",
"9  c #E2C39D",
"0  c #F3D5A4",
"q  c #E2A449",
"w  c #C07720",
"e  c #AE5F09",
"r  c #AE5E07",
"t  c #AE5E06",
"y  c #AE5F08",
"u  c #AE600A",
"i  c #AE600B",
"p  c #C07212",
"a  c #D98B1C",
"s  c #AF6719",
"d  c #DC9E47",
"f  c #E3A44A",
"g  c #C17820",
"h  c #B0620C",
"j  c #9E5411",
"k  c #AA6B30",
"l  c #B27842",
"z  c #AF6619",
"x  c #A75907",
"c  c #9D4F04",
"v  c #AF610B",
"b  c #DA8C1D",
"n  c #D98B1D",
"m  c #AF600A",
"M  c #D98A19",
"N  c #D98A18",
"B  c #D1B192",
"V  c #E6D7C8",
"C  c #E5D8CA",
"Z  c #E2C39C",
"A  c #DC9D45",
"S  c #C77812",
"D  c #A75806",
"F  c #AF600B",
"G  c #D98A1A",
"H  c #D98918",
"J  c white",
"K  c #FDF5E3",
"L  c #F8D9A4",
"P  c #F3B44D",
"I  c #F6CD8A",
"U  c #F1B14B",
"Y  c #F0A630",
"T  c #AE5F0A",
"R  c #EE9D1D",
"E  c #EF9F22",
"W  c #F0A124",
"Q  c #C87A16",
"!  c #A85A09",
"~  c #DA8B1A",
"^  c #B0620B",
"/  c #DA8A19",
"(  c #B0610B",
")  c #C17921",
"_  c #E4A64B",
"`  c #DD9F48",
"'  c #B0671A",
"]  c #DA8B1C",
"[  c #E0921F",
"{  c #C07213",
"}  c #DD9F47",
"|  c #B1681A",
" . c #994B01",
".. c #F5D8A8",
"X. c #E3C6A1",
"o. c #B17337",
"O. c #EB9D24",
"+. c #E3C69F",
"@. c #B37436",
"#. c #994900",
"$. c #D2B59A",
"%. c #AC6E35",
"&. c #A95904",
"*. c #C87811",
"=. c #D2B498",
"-. c #AD6F34",
";. c #9A4A00",
":. c #A15814",
">. c #A05103",
",. c #AC6E34",
"<. c #A15813",
"1. c #9B4D02",
"2. c #A95905",
"3. c #A05204",
"4. c #9B4E04",
"5. c #C87913",
"6. c #AA5C09",
"7. c #994B03",
"8. c #D2B496",
"9. c #AD6F33",
"0. c #9C4E04",
/* pixels */
"  . X o O + + + + @ @ @ + # $ % & * = o O + + + + @ @ @ + - ; : ",
". > , < 1 2 2 3 4 - - 5 6 3 7 8 9 0 q < 1 2 2 3 4 - - 5 6 - ; : ",
"X , w e r t t y u i i p 5 a u s d f g e r t t y u i i p 5 a h : ",
"o < e j k l % 8 z x c v b n ; m M N e j k l % 8 z x c v b b h : ",
"O 1 r k B V C Z A S D i n n ; F G H r k B V C Z A S D i n b h : ",
"+ 2 t l V J K L P H e v n n v v n M t l V J K L P H e v n b h : ",
"+ 2 t % C K I U Y 4 T v n n v v n M t % C K I U Y 4 T v n b h : ",
"+ 3 y 8 Z L U R E - i v n n v v n G y 8 Z L U R E - i v n b h : ",
"+ 4 u z A P Y E W a i v n n v v n a u z A P Y E W a i v n b h : ",
"@ - i x S H 4 - a Q ! u G G F ; n n i x S H 4 - a Q ! u G ~ ^ : ",
"@ - i c D e T i i ! c m / M m ; n b ; c D e T i i ! c m / M ( : ",
"@ 5 p v i v v v v u m ) _ ` ' u ] [ { v i v v v v u m ) _ } |  .",
"+ 6 5 b n n n n n G / _ ..X.o.r G O.[ b n n n n n G / _ ..+.@.#.",
"# 3 a n n n n n n G M ` X.$.%.&.*.G ] n n n n n n G M ` X.=.-.;.",
"$ 7 u ; ; v v v v F m ' o.%.:.>.&.r u ; ; v v v v F m ' o.,.<.1.",
"% 8 s m F v v v v ; ; u r &.>.:.%.o.' m F v v v v ; ; u r 2.3.4.",
"& 9 d M G n n n n n n ] G *.&.%.$.X.` M G n n n n n n ] G 5.6.: ",
"* 0 f N H M M G a n b [ O.G r o.X..._ N H M M G a n b [ O.b h 7.",
"= q g e r t t y u i ; { [ ] u ' ` _ ) e r t t y u i ; { [ b h 7.",
"o < e j k l % 8 z x c v b n ; m M N e j k l % 8 z x c v b b h : ",
"O 1 r k B V C Z A S D i n n ; F G H r k B V C Z A S D i n b h : ",
"+ 2 t l V J K L P H e v n n v v n M t l V J K L P H e v n b h : ",
"+ 2 t % C K I U Y 4 T v n n v v n M t % C K I U Y 4 T v n b h : ",
"+ 3 y 8 Z L U R E - i v n n v v n G y 8 Z L U R E - i v n b h : ",
"+ 4 u z A P Y E W a i v n n v v n a u z A P Y E W a i v n b h : ",
"@ - i x S H 4 - a Q ! u G G F ; n n i x S H 4 - a Q ! u G ~ ^ : ",
"@ - i c D e T i i ! c m / M m ; n b ; c D e T i i ! c m / M ( : ",
"@ 5 p v i v v v v u m ) _ ` ' u ] [ { v i v v v v u m ) _ } |  .",
"+ 6 5 b n n n n n G / _ ..X.o.r G O.[ b n n n n n G / _ ..+.@.#.",
"- - a b b b b b b ~ M } +.=.,.2.5.b b b b b b b b ~ M } +.8.9.;.",
"; ; h h h h h h h ^ ( | @.-.<.3.6.h h h h h h h h ^ ( | @.9.<.1.",
": : : : : : : : : : :  .#.;.1.4.: 7.7.: : : : : : : :  .#.;.1.0."
};
