/* XPM */
static char *result[] = {
/* columns rows colors chars-per-pixel */
"32 32 86 1 ",
"  c #630000",
". c #640000",
"X c #651515",
"o c #BF3F00",
"O c #CC0000",
"+ c #CD0000",
"@ c #CF0000",
"# c #CD1515",
"$ c #EE0000",
"% c #F30000",
"& c red",
"* c #F60A00",
"= c #F30C00",
"- c #F80C00",
"; c #FF1016",
": c #FF1216",
"> c #FF1515",
", c #D52B00",
"< c #D62B00",
"1 c #D12F00",
"2 c #D32F00",
"3 c #D82B00",
"4 c #C63B00",
"5 c #C33C00",
"6 c #C13F00",
"7 c #C23E00",
"8 c #C33E00",
"9 c #C43C00",
"0 c #C53C00",
"q c #BF4000",
"w c #BF4B10",
"e c #8F6B00",
"r c #916A00",
"t c #906B00",
"y c #BF6131",
"u c #C04000",
"i c #FF3E42",
"p c #FF3F42",
"a c #BF6C42",
"s c #CD4141",
"d c #EF4141",
"f c #FF4141",
"g c #FF5659",
"h c #FF565A",
"j c #FF5858",
"k c #3C9515",
"l c #00A400",
"z c #00A500",
"x c #00A600",
"c c #00A700",
"v c #00AA00",
"b c #00BC00",
"n c #00BD00",
"m c #00BE00",
"M c #3CA10F",
"N c #3CB805",
"B c #6E9300",
"V c #6F9300",
"C c #00C000",
"Z c #00C200",
"A c #0BC200",
"S c #0CC200",
"D c #2DC300",
"F c #2EC300",
"G c #2AC500",
"H c #29C700",
"J c #3CC300",
"K c #3DC300",
"L c #3EC300",
"P c #3FC300",
"I c #3BC600",
"U c #3CC400",
"Y c #3CC600",
"T c #39C800",
"R c #3AC800",
"E c #00E100",
"W c #00E200",
"Q c #00E500",
"! c #00EF00",
"~ c #00F000",
"^ c #00F100",
"/ c #00F200",
"( c #00F300",
") c #00F400",
"_ c green",
"` c None",
/* pixels */
"````````````````````````````````",
"````````````````````````````````",
"````````````````````````````````",
"````````````````````````````````",
"````````````````````````````````",
"````````````````````````````````",
"vkahgjjjjjjjjjjjjjjjjjjjjjjghakv",
"ZMyipffffdssdffffffdssdffffpiyMZ",
"~Nw;:>>>>#XX#>>>>>>#XX#>>>>:;wN~",
"_Uo&&&&&&O  O&&&&&&O  O&&&&&&oU_",
"_Uq&&&&&&$OO$&&&&&&$OO$&&&&&&qU_",
"_K7&&$OO$&&&&&&&&&&&&&&$OO$&&qJ_",
"_L5&&O  O&&&&&&&&&&&&&&O  O&&qJ_",
"~De3-+. O&&&&&&&&&&&&&&O  O&&7K_",
"mSGV2%@O$&&&&&&&&&&&&&&$OO$&&5L_",
"zZ)Tu&&&&&&$OO$&&$OO$&&&&&&=,eD~",
"xZ/Iu&&&&&&O  O&&O  O&&&&&&1BGSm",
"cZ~P9&&$O@%+. O&&O .+%@O$&&8R)Zz",
"cZ^P4&&O .+%@O$&&$O@%+. O&&0Y(Zx",
"cCWFr3-+. O&&&&&&&&&&O .+-3rFWCc",
"``nSGV2%@O$&&&&&&&&&&$O@%2VGSn``",
"``zZ)R8&&&&$OO$&&$OO$&&&&8R)Zz``",
"``xZ(Y0&&&&O  O&&O  O&&&&0Y(Zx``",
"``cCEDt<*&&@. O&&O .@&&*<tDECc``",
"````bAHV<&&%+O$&&$O+%&&<VHAb````",
"````lCQHt082-&&&&&&-280tHQCl````",
"``````CADYRV3&&&&&&3VRYDAC``````",
"``````lbE()Gr496694rG)(Ebl``````",
"````````CZZSFPPLLPPFSZZC````````",
"````````cxznW^~!!~^Wnzxc````````",
"````````````CZZZZZZC````````````",
"````````````cccccccc````````````"
};
